<?xml version="1.0" encoding="utf-8"?>
<!-- Generator: Adobe Illustrator 24.0.0, SVG Export Plug-In . SVG Version: 6.00 Build 0)  -->
<svg version="1.1" id="Layer_1" xmlns="http://www.w3.org/2000/svg" xmlns:xlink="http://www.w3.org/1999/xlink" x="0px" y="0px"
	 viewBox="0 0 1148 1148" style="enable-background:new 0 0 1148 1148;" xml:space="preserve">
<style type="text/css">
	.st0{fill:#F6B62B;}
</style>
<g>
	<g transform="translate(56,56)">
		<g transform="translate(224,0) scale(0.28,0.28)">
			<g transform="">
				<path d="M100,73.4c0,11.7,0,26.6,0,26.6s-34,0-50,0c-12.5,0-50,0-50,0V74.9c0,0-2.1-65.5,13.5-73.3C37.7-10.4,100,45.7,100,73.4
					z"/>
			</g>
		</g>
		<g transform="translate(280,0) scale(0.28,0.28)">
			<g transform="">
				<path d="M100,73.4c0,11.7,0,26.6,0,26.6s-34,0-50,0c-12.5,0-50,0-50,0V74.9c0,0-2.1-65.5,13.5-73.3C37.7-10.4,100,45.7,100,73.4
					z"/>
			</g>
		</g>
		<g transform="translate(336,0) scale(0.28,0.28)">
			<g transform="">
				<g>
					<path d="M95.3,84C120.4,37.1,29.5-30.2,4.6,16.1C-20.4,62.9,70.6,130.1,95.3,84"/>
				</g>
			</g>
		</g>
		<g transform="translate(448,0) scale(0.28,0.28)">
			<g transform="">
				<path d="M100,73.4c0,11.7,0,26.6,0,26.6s-34,0-50,0c-12.5,0-50,0-50,0V74.9c0,0-2.1-65.5,13.5-73.3C37.7-10.4,100,45.7,100,73.4
					z"/>
			</g>
		</g>
		<g transform="translate(532,0) scale(0.28,0.28)">
			<g transform="">
				<g>
					<path d="M95.3,84C120.4,37.1,29.5-30.2,4.6,16.1C-20.4,62.9,70.6,130.1,95.3,84"/>
				</g>
			</g>
		</g>
		<g transform="translate(644,0) scale(0.28,0.28)">
			<g transform="">
				<g>
					<path d="M95.3,84C120.4,37.1,29.5-30.2,4.6,16.1C-20.4,62.9,70.6,130.1,95.3,84"/>
				</g>
			</g>
		</g>
		<g transform="translate(700,0) scale(0.28,0.28)">
			<g transform="">
				<path d="M100,73.4c0,11.7,0,26.6,0,26.6s-34,0-50,0c-12.5,0-50,0-50,0V74.9c0,0-2.1-65.5,13.5-73.3C37.7-10.4,100,45.7,100,73.4
					z"/>
			</g>
		</g>
		<g transform="translate(784,0) scale(0.28,0.28)">
			<g transform="">
				<g>
					<path d="M95.3,84C120.4,37.1,29.5-30.2,4.6,16.1C-20.4,62.9,70.6,130.1,95.3,84"/>
				</g>
			</g>
		</g>
		<g transform="translate(224,28) scale(0.28,0.28)">
			<g transform="">
				<rect x="0" y="0" width="100" height="100"/>
			</g>
		</g>
		<g transform="translate(252,28) scale(0.28,0.28)">
			<g transform="">
				<rect x="0" y="0" width="100" height="100"/>
			</g>
		</g>
		<g transform="translate(280,28) scale(0.28,0.28)">
			<g transform="">
				<g>
					<path d="M100,0H0v100h65.6c9.5,0,17.6-3.4,24.3-10.1S100,75.1,100,65.6V0z"/>
				</g>
			</g>
		</g>
		<g transform="translate(420,28) scale(0.28,0.28)">
			<g transform="">
				<path d="M73.4,0C85.1,0,100,0,100,0s0,34,0,50c0,12.5,0,50,0,50H74.9c0,0-65.5,2.1-73.3-13.5C-10.4,62.3,45.7,0,73.4,0z"/>
			</g>
		</g>
		<g transform="translate(448,28) scale(0.28,0.28)">
			<g transform="">
				<rect x="0" y="0" width="100" height="100"/>
			</g>
		</g>
		<g transform="translate(476,28) scale(0.28,0.28)">
			<g transform="">
				<rect x="0" y="0" width="100" height="100"/>
			</g>
		</g>
		<g transform="translate(504,28) scale(0.28,0.28)">
			<g transform="">
				<g>
					<path d="M100,34.4c0-9.5-3.4-17.6-10.1-24.3S75.1,0,65.6,0H0v100h100V34.4z"/>
				</g>
			</g>
		</g>
		<g transform="translate(560,28) scale(0.28,0.28)">
			<g transform="">
				<g>
					<path d="M95.3,84C120.4,37.1,29.5-30.2,4.6,16.1C-20.4,62.9,70.6,130.1,95.3,84"/>
				</g>
			</g>
		</g>
		<g transform="translate(616,28) scale(0.28,0.28)">
			<g transform="">
				<g>
					<path d="M95.3,84C120.4,37.1,29.5-30.2,4.6,16.1C-20.4,62.9,70.6,130.1,95.3,84"/>
				</g>
			</g>
		</g>
		<g transform="translate(700,28) scale(0.28,0.28)">
			<g transform="">
				<g>
					<path d="M100,0H0v65.6c0,9.5,3.4,17.6,10.1,24.3S24.9,100,34.4,100H100V0z"/>
				</g>
			</g>
		</g>
		<g transform="translate(728,28) scale(0.28,0.28)">
			<g transform="">
				<rect x="0" y="0" width="100" height="100"/>
			</g>
		</g>
		<g transform="translate(756,28) scale(0.28,0.28)">
			<g transform="">
				<g>
					<path d="M100,34.4c0-9.5-3.4-17.6-10.1-24.3S75.1,0,65.6,0H0v100h100V34.4z"/>
				</g>
			</g>
		</g>
		<g transform="translate(224,56) scale(0.28,0.28)">
			<g transform="">
				<g>
					<path d="M100,0H0v65.6c0,9.5,3.4,17.6,10.1,24.3S24.9,100,34.4,100H100V0z"/>
				</g>
			</g>
		</g>
		<g transform="translate(252,56) scale(0.28,0.28)">
			<g transform="">
				<rect x="0" y="0" width="100" height="100"/>
			</g>
		</g>
		<g transform="translate(504,56) scale(0.28,0.28)">
			<g transform="">
				<path d="M0,25.6C0,13.9,0-1,0-1s34,0,50,0c12.5,0,50,0,50,0v25.1c0,0,2.1,65.5-13.5,73.3C62.3,109.4,0,53.3,0,25.6z"/>
			</g>
		</g>
		<g transform="translate(588,56) scale(0.28,0.28)">
			<g transform="">
				<g>
					<path d="M95.3,84C120.4,37.1,29.5-30.2,4.6,16.1C-20.4,62.9,70.6,130.1,95.3,84"/>
				</g>
			</g>
		</g>
		<g transform="translate(728,56) scale(0.28,0.28)">
			<g transform="">
				<rect x="0" y="0" width="100" height="100"/>
			</g>
		</g>
		<g transform="translate(756,56) scale(0.28,0.28)">
			<g transform="">
				<rect x="0" y="0" width="100" height="100"/>
			</g>
		</g>
		<g transform="translate(784,56) scale(0.28,0.28)">
			<g transform="">
				<path d="M26.6,100C14.9,100,0,100,0,100s0-34,0-50c0-12.5,0-50,0-50h25.1c0,0,64.5-2.1,72.3,13.5C109.4,37.7,54.3,100,26.6,100z
					"/>
			</g>
		</g>
		<g transform="translate(252,84) scale(0.28,0.28)">
			<g transform="">
				<rect x="0" y="0" width="100" height="100"/>
			</g>
		</g>
		<g transform="translate(308,84) scale(0.28,0.28)">
			<g transform="">
				<g>
					<path d="M95.3,84C120.4,37.1,29.5-30.2,4.6,16.1C-20.4,62.9,70.6,130.1,95.3,84"/>
				</g>
			</g>
		</g>
		<g transform="translate(364,84) scale(0.28,0.28)">
			<g transform="">
				<g>
					<path d="M95.3,84C120.4,37.1,29.5-30.2,4.6,16.1C-20.4,62.9,70.6,130.1,95.3,84"/>
				</g>
			</g>
		</g>
		<g transform="translate(448,84) scale(0.28,0.28)">
			<g transform="">
				<path d="M73.4,0C85.1,0,100,0,100,0s0,34,0,50c0,12.5,0,50,0,50H74.9c0,0-65.5,2.1-73.3-13.5C-10.4,62.3,45.7,0,73.4,0z"/>
			</g>
		</g>
		<g transform="translate(476,84) scale(0.28,0.28)">
			<g transform="">
				<path d="M26.6,100C14.9,100,0,100,0,100s0-34,0-50c0-12.5,0-50,0-50h25.1c0,0,64.5-2.1,72.3,13.5C109.4,37.7,54.3,100,26.6,100z
					"/>
			</g>
		</g>
		<g transform="translate(644,84) scale(0.28,0.28)">
			<g transform="">
				<g>
					<path d="M100,34.4V0H34.4c-9.5,0-17.6,3.4-24.3,10.1S0,24.9,0,34.4V100h100V34.4z"/>
				</g>
			</g>
		</g>
		<g transform="translate(672,84) scale(0.28,0.28)">
			<g transform="">
				<rect x="0" y="0" width="100" height="100"/>
			</g>
		</g>
		<g transform="translate(700,84) scale(0.28,0.28)">
			<g transform="">
				<rect x="0" y="0" width="100" height="100"/>
			</g>
		</g>
		<g transform="translate(728,84) scale(0.28,0.28)">
			<g transform="">
				<rect x="0" y="0" width="100" height="100"/>
			</g>
		</g>
		<g transform="translate(756,84) scale(0.28,0.28)">
			<g transform="">
				<g>
					<path d="M100,0H0v100h65.6c9.5,0,17.6-3.4,24.3-10.1S100,75.1,100,65.6V0z"/>
				</g>
			</g>
		</g>
		<g transform="translate(252,112) scale(0.28,0.28)">
			<g transform="">
				<rect x="0" y="0" width="100" height="100"/>
			</g>
		</g>
		<g transform="translate(280,112) scale(0.28,0.28)">
			<g transform="">
				<path d="M26.6,100C14.9,100,0,100,0,100s0-34,0-50c0-12.5,0-50,0-50h25.1c0,0,64.5-2.1,72.3,13.5C109.4,37.7,54.3,100,26.6,100z
					"/>
			</g>
		</g>
		<g transform="translate(336,112) scale(0.28,0.28)">
			<g transform="">
				<path d="M100,73.4c0,11.7,0,26.6,0,26.6s-34,0-50,0c-12.5,0-50,0-50,0V74.9c0,0-2.1-65.5,13.5-73.3C37.7-10.4,100,45.7,100,73.4
					z"/>
			</g>
		</g>
		<g transform="translate(392,112) scale(0.28,0.28)">
			<g transform="">
				<g>
					<path d="M100,34.4V0H34.4c-9.5,0-17.6,3.4-24.3,10.1S0,24.9,0,34.4V100h100V34.4z"/>
				</g>
			</g>
		</g>
		<g transform="translate(420,112) scale(0.28,0.28)">
			<g transform="">
				<g>
					<path d="M100,34.4c0-9.5-3.4-17.6-10.1-24.3S75.1,0,65.6,0H0v100h100V34.4z"/>
				</g>
			</g>
		</g>
		<g transform="translate(532,112) scale(0.28,0.28)">
			<g transform="">
				<g>
					<path d="M95.3,84C120.4,37.1,29.5-30.2,4.6,16.1C-20.4,62.9,70.6,130.1,95.3,84"/>
				</g>
			</g>
		</g>
		<g transform="translate(588,112) scale(0.28,0.28)">
			<g transform="">
				<g>
					<path d="M100,34.4V0H34.4c-9.5,0-17.6,3.4-24.3,10.1S0,24.9,0,34.4V100h100V34.4z"/>
				</g>
			</g>
		</g>
		<g transform="translate(616,112) scale(0.28,0.28)">
			<g transform="">
				<rect x="0" y="0" width="100" height="100"/>
			</g>
		</g>
		<g transform="translate(644,112) scale(0.28,0.28)">
			<g transform="">
				<g>
					<path d="M100,0H0v100h65.6c9.5,0,17.6-3.4,24.3-10.1S100,75.1,100,65.6V0z"/>
				</g>
			</g>
		</g>
		<g transform="translate(224,140) scale(0.28,0.28)">
			<g transform="">
				<g>
					<path d="M100,34.4V0H34.4c-9.5,0-17.6,3.4-24.3,10.1S0,24.9,0,34.4V100h100V34.4z"/>
				</g>
			</g>
		</g>
		<g transform="translate(252,140) scale(0.28,0.28)">
			<g transform="">
				<g>
					<path d="M100,0H0v100h65.6c9.5,0,17.6-3.4,24.3-10.1S100,75.1,100,65.6V0z"/>
				</g>
			</g>
		</g>
		<g transform="translate(336,140) scale(0.28,0.28)">
			<g transform="">
				<rect x="0" y="0" width="100" height="100"/>
			</g>
		</g>
		<g transform="translate(392,140) scale(0.28,0.28)">
			<g transform="">
				<rect x="0" y="0" width="100" height="100"/>
			</g>
		</g>
		<g transform="translate(420,140) scale(0.28,0.28)">
			<g transform="">
				<rect x="0" y="0" width="100" height="100"/>
			</g>
		</g>
		<g transform="translate(448,140) scale(0.28,0.28)">
			<g transform="">
				<rect x="0" y="0" width="100" height="100"/>
			</g>
		</g>
		<g transform="translate(476,140) scale(0.28,0.28)">
			<g transform="">
				<path d="M26.6,100C14.9,100,0,100,0,100s0-34,0-50c0-12.5,0-50,0-50h25.1c0,0,64.5-2.1,72.3,13.5C109.4,37.7,54.3,100,26.6,100z
					"/>
			</g>
		</g>
		<g transform="translate(588,140) scale(0.28,0.28)">
			<g transform="">
				<g>
					<path d="M100,0H0v65.6c0,9.5,3.4,17.6,10.1,24.3S24.9,100,34.4,100H100V0z"/>
				</g>
			</g>
		</g>
		<g transform="translate(616,140) scale(0.28,0.28)">
			<g transform="">
				<rect x="0" y="0" width="100" height="100"/>
			</g>
		</g>
		<g transform="translate(672,140) scale(0.28,0.28)">
			<g transform="">
				<path d="M100,73.4c0,11.7,0,26.6,0,26.6s-34,0-50,0c-12.5,0-50,0-50,0V74.9c0,0-2.1-65.5,13.5-73.3C37.7-10.4,100,45.7,100,73.4
					z"/>
			</g>
		</g>
		<g transform="translate(728,140) scale(0.28,0.28)">
			<g transform="">
				<g>
					<path d="M100,34.4V0H34.4c-9.5,0-17.6,3.4-24.3,10.1S0,24.9,0,34.4V100h100V34.4z"/>
				</g>
			</g>
		</g>
		<g transform="translate(756,140) scale(0.28,0.28)">
			<g transform="">
				<rect x="0" y="0" width="100" height="100"/>
			</g>
		</g>
		<g transform="translate(784,140) scale(0.28,0.28)">
			<g transform="">
				<g>
					<path d="M100,34.4c0-9.5-3.4-17.6-10.1-24.3S75.1,0,65.6,0H0v100h100V34.4z"/>
				</g>
			</g>
		</g>
		<g transform="translate(224,168) scale(0.28,0.28)">
			<g transform="">
				<rect x="0" y="0" width="100" height="100"/>
			</g>
		</g>
		<g transform="translate(280,168) scale(0.28,0.28)">
			<g transform="">
				<g>
					<path d="M95.3,84C120.4,37.1,29.5-30.2,4.6,16.1C-20.4,62.9,70.6,130.1,95.3,84"/>
				</g>
			</g>
		</g>
		<g transform="translate(336,168) scale(0.28,0.28)">
			<g transform="">
				<rect x="0" y="0" width="100" height="100"/>
			</g>
		</g>
		<g transform="translate(392,168) scale(0.28,0.28)">
			<g transform="">
				<path d="M0,25.6C0,13.9,0-1,0-1s34,0,50,0c12.5,0,50,0,50,0v25.1c0,0,2.1,65.5-13.5,73.3C62.3,109.4,0,53.3,0,25.6z"/>
			</g>
		</g>
		<g transform="translate(448,168) scale(0.28,0.28)">
			<g transform="">
				<path d="M0,25.6C0,13.9,0-1,0-1s34,0,50,0c12.5,0,50,0,50,0v25.1c0,0,2.1,65.5-13.5,73.3C62.3,109.4,0,53.3,0,25.6z"/>
			</g>
		</g>
		<g transform="translate(504,168) scale(0.28,0.28)">
			<g transform="">
				<path d="M100,73.4c0,11.7,0,26.6,0,26.6s-34,0-50,0c-12.5,0-50,0-50,0V74.9c0,0-2.1-65.5,13.5-73.3C37.7-10.4,100,45.7,100,73.4
					z"/>
			</g>
		</g>
		<g transform="translate(560,168) scale(0.28,0.28)">
			<g transform="">
				<path d="M100,73.4c0,11.7,0,26.6,0,26.6s-34,0-50,0c-12.5,0-50,0-50,0V74.9c0,0-2.1-65.5,13.5-73.3C37.7-10.4,100,45.7,100,73.4
					z"/>
			</g>
		</g>
		<g transform="translate(616,168) scale(0.28,0.28)">
			<g transform="">
				<path d="M0,25.6C0,13.9,0-1,0-1s34,0,50,0c12.5,0,50,0,50,0v25.1c0,0,2.1,65.5-13.5,73.3C62.3,109.4,0,53.3,0,25.6z"/>
			</g>
		</g>
		<g transform="translate(672,168) scale(0.28,0.28)">
			<g transform="">
				<rect x="0" y="0" width="100" height="100"/>
			</g>
		</g>
		<g transform="translate(728,168) scale(0.28,0.28)">
			<g transform="">
				<path d="M0,25.6C0,13.9,0-1,0-1s34,0,50,0c12.5,0,50,0,50,0v25.1c0,0,2.1,65.5-13.5,73.3C62.3,109.4,0,53.3,0,25.6z"/>
			</g>
		</g>
		<g transform="translate(784,168) scale(0.28,0.28)">
			<g transform="">
				<rect x="0" y="0" width="100" height="100"/>
			</g>
		</g>
		<g transform="translate(224,196) scale(0.28,0.28)">
			<g transform="">
				<rect x="0" y="0" width="100" height="100"/>
			</g>
		</g>
		<g transform="translate(252,196) scale(0.28,0.28)">
			<g transform="">
				<path d="M26.6,100C14.9,100,0,100,0,100s0-34,0-50c0-12.5,0-50,0-50h25.1c0,0,64.5-2.1,72.3,13.5C109.4,37.7,54.3,100,26.6,100z
					"/>
			</g>
		</g>
		<g transform="translate(308,196) scale(0.28,0.28)">
			<g transform="">
				<path d="M73.4,0C85.1,0,100,0,100,0s0,34,0,50c0,12.5,0,50,0,50H74.9c0,0-65.5,2.1-73.3-13.5C-10.4,62.3,45.7,0,73.4,0z"/>
			</g>
		</g>
		<g transform="translate(336,196) scale(0.28,0.28)">
			<g transform="">
				<rect x="0" y="0" width="100" height="100"/>
			</g>
		</g>
		<g transform="translate(504,196) scale(0.28,0.28)">
			<g transform="">
				<path d="M0,25.6C0,13.9,0-1,0-1s34,0,50,0c12.5,0,50,0,50,0v25.1c0,0,2.1,65.5-13.5,73.3C62.3,109.4,0,53.3,0,25.6z"/>
			</g>
		</g>
		<g transform="translate(560,196) scale(0.28,0.28)">
			<g transform="">
				<path d="M0,25.6C0,13.9,0-1,0-1s34,0,50,0c12.5,0,50,0,50,0v25.1c0,0,2.1,65.5-13.5,73.3C62.3,109.4,0,53.3,0,25.6z"/>
			</g>
		</g>
		<g transform="translate(644,196) scale(0.28,0.28)">
			<g transform="">
				<g>
					<path d="M100,34.4V0H34.4c-9.5,0-17.6,3.4-24.3,10.1S0,24.9,0,34.4V100h100V34.4z"/>
				</g>
			</g>
		</g>
		<g transform="translate(672,196) scale(0.28,0.28)">
			<g transform="">
				<g>
					<path d="M100,0H0v100h65.6c9.5,0,17.6-3.4,24.3-10.1S100,75.1,100,65.6V0z"/>
				</g>
			</g>
		</g>
		<g transform="translate(784,196) scale(0.28,0.28)">
			<g transform="">
				<rect x="0" y="0" width="100" height="100"/>
			</g>
		</g>
		<g transform="translate(56,224) scale(0.28,0.28)">
			<g transform="">
				<path d="M73.4,0C85.1,0,100,0,100,0s0,34,0,50c0,12.5,0,50,0,50H74.9c0,0-65.5,2.1-73.3-13.5C-10.4,62.3,45.7,0,73.4,0z"/>
			</g>
		</g>
		<g transform="translate(84,224) scale(0.28,0.28)">
			<g transform="">
				<rect x="0" y="0" width="100" height="100"/>
			</g>
		</g>
		<g transform="translate(112,224) scale(0.28,0.28)">
			<g transform="">
				<g>
					<path d="M100,34.4c0-9.5-3.4-17.6-10.1-24.3S75.1,0,65.6,0H0v100h100V34.4z"/>
				</g>
			</g>
		</g>
		<g transform="translate(168,224) scale(0.28,0.28)">
			<g transform="">
				<g>
					<path d="M95.3,84C120.4,37.1,29.5-30.2,4.6,16.1C-20.4,62.9,70.6,130.1,95.3,84"/>
				</g>
			</g>
		</g>
		<g transform="translate(224,224) scale(0.28,0.28)">
			<g transform="">
				<path d="M0,25.6C0,13.9,0-1,0-1s34,0,50,0c12.5,0,50,0,50,0v25.1c0,0,2.1,65.5-13.5,73.3C62.3,109.4,0,53.3,0,25.6z"/>
			</g>
		</g>
		<g transform="translate(280,224) scale(0.28,0.28)">
			<g transform="">
				<path d="M100,73.4c0,11.7,0,26.6,0,26.6s-34,0-50,0c-12.5,0-50,0-50,0V74.9c0,0-2.1-65.5,13.5-73.3C37.7-10.4,100,45.7,100,73.4
					z"/>
			</g>
		</g>
		<g transform="translate(336,224) scale(0.28,0.28)">
			<g transform="">
				<rect x="0" y="0" width="100" height="100"/>
			</g>
		</g>
		<g transform="translate(420,224) scale(0.28,0.28)">
			<g transform="">
				<g>
					<path d="M100,34.4V0H34.4c-9.5,0-17.6,3.4-24.3,10.1S0,24.9,0,34.4V100h100V34.4z"/>
				</g>
			</g>
		</g>
		<g transform="translate(448,224) scale(0.28,0.28)">
			<g transform="">
				<rect x="0" y="0" width="100" height="100"/>
			</g>
		</g>
		<g transform="translate(476,224) scale(0.28,0.28)">
			<g transform="">
				<path d="M26.6,100C14.9,100,0,100,0,100s0-34,0-50c0-12.5,0-50,0-50h25.1c0,0,64.5-2.1,72.3,13.5C109.4,37.7,54.3,100,26.6,100z
					"/>
			</g>
		</g>
		<g transform="translate(644,224) scale(0.28,0.28)">
			<g transform="">
				<path d="M0,25.6C0,13.9,0-1,0-1s34,0,50,0c12.5,0,50,0,50,0v25.1c0,0,2.1,65.5-13.5,73.3C62.3,109.4,0,53.3,0,25.6z"/>
			</g>
		</g>
		<g transform="translate(700,224) scale(0.28,0.28)">
			<g transform="">
				<g>
					<path d="M100,34.4V0H34.4c-9.5,0-17.6,3.4-24.3,10.1S0,24.9,0,34.4V100h100V34.4z"/>
				</g>
			</g>
		</g>
		<g transform="translate(728,224) scale(0.28,0.28)">
			<g transform="">
				<path d="M26.6,100C14.9,100,0,100,0,100s0-34,0-50c0-12.5,0-50,0-50h25.1c0,0,64.5-2.1,72.3,13.5C109.4,37.7,54.3,100,26.6,100z
					"/>
			</g>
		</g>
		<g transform="translate(784,224) scale(0.28,0.28)">
			<g transform="">
				<rect x="0" y="0" width="100" height="100"/>
			</g>
		</g>
		<g transform="translate(812,224) scale(0.28,0.28)">
			<g transform="">
				<rect x="0" y="0" width="100" height="100"/>
			</g>
		</g>
		<g transform="translate(840,224) scale(0.28,0.28)">
			<g transform="">
				<rect x="0" y="0" width="100" height="100"/>
			</g>
		</g>
		<g transform="translate(868,224) scale(0.28,0.28)">
			<g transform="">
				<g>
					<path d="M100,34.4c0-9.5-3.4-17.6-10.1-24.3S75.1,0,65.6,0H0v100h100V34.4z"/>
				</g>
			</g>
		</g>
		<g transform="translate(952,224) scale(0.28,0.28)">
			<g transform="">
				<g>
					<path d="M100,34.4V0H34.4c-9.5,0-17.6,3.4-24.3,10.1S0,24.9,0,34.4V100h100V34.4z"/>
				</g>
			</g>
		</g>
		<g transform="translate(980,224) scale(0.28,0.28)">
			<g transform="">
				<rect x="0" y="0" width="100" height="100"/>
			</g>
		</g>
		<g transform="translate(1008,224) scale(0.28,0.28)">
			<g transform="">
				<path d="M26.6,100C14.9,100,0,100,0,100s0-34,0-50c0-12.5,0-50,0-50h25.1c0,0,64.5-2.1,72.3,13.5C109.4,37.7,54.3,100,26.6,100z
					"/>
			</g>
		</g>
		<g transform="translate(0,252) scale(0.28,0.28)">
			<g transform="">
				<g>
					<path d="M95.3,84C120.4,37.1,29.5-30.2,4.6,16.1C-20.4,62.9,70.6,130.1,95.3,84"/>
				</g>
			</g>
		</g>
		<g transform="translate(112,252) scale(0.28,0.28)">
			<g transform="">
				<rect x="0" y="0" width="100" height="100"/>
			</g>
		</g>
		<g transform="translate(196,252) scale(0.28,0.28)">
			<g transform="">
				<path d="M100,73.4c0,11.7,0,26.6,0,26.6s-34,0-50,0c-12.5,0-50,0-50,0V74.9c0,0-2.1-65.5,13.5-73.3C37.7-10.4,100,45.7,100,73.4
					z"/>
			</g>
		</g>
		<g transform="translate(280,252) scale(0.28,0.28)">
			<g transform="">
				<g>
					<path d="M100,0H0v65.6c0,9.5,3.4,17.6,10.1,24.3S24.9,100,34.4,100H100V0z"/>
				</g>
			</g>
		</g>
		<g transform="translate(308,252) scale(0.28,0.28)">
			<g transform="">
				<rect x="0" y="0" width="100" height="100"/>
			</g>
		</g>
		<g transform="translate(336,252) scale(0.28,0.28)">
			<g transform="">
				<rect x="0" y="0" width="100" height="100"/>
			</g>
		</g>
		<g transform="translate(364,252) scale(0.28,0.28)">
			<g transform="">
				<path d="M26.6,100C14.9,100,0,100,0,100s0-34,0-50c0-12.5,0-50,0-50h25.1c0,0,64.5-2.1,72.3,13.5C109.4,37.7,54.3,100,26.6,100z
					"/>
			</g>
		</g>
		<g transform="translate(420,252) scale(0.28,0.28)">
			<g transform="">
				<g>
					<path d="M100,0H0v65.6c0,9.5,3.4,17.6,10.1,24.3S24.9,100,34.4,100H100V0z"/>
				</g>
			</g>
		</g>
		<g transform="translate(448,252) scale(0.28,0.28)">
			<g transform="">
				<g>
					<path d="M100,0H0v100h65.6c9.5,0,17.6-3.4,24.3-10.1S100,75.1,100,65.6V0z"/>
				</g>
			</g>
		</g>
		<g transform="translate(532,252) scale(0.28,0.28)">
			<g transform="">
				<g>
					<path d="M95.3,84C120.4,37.1,29.5-30.2,4.6,16.1C-20.4,62.9,70.6,130.1,95.3,84"/>
				</g>
			</g>
		</g>
		<g transform="translate(700,252) scale(0.28,0.28)">
			<g transform="">
				<rect x="0" y="0" width="100" height="100"/>
			</g>
		</g>
		<g transform="translate(784,252) scale(0.28,0.28)">
			<g transform="">
				<path d="M0,25.6C0,13.9,0-1,0-1s34,0,50,0c12.5,0,50,0,50,0v25.1c0,0,2.1,65.5-13.5,73.3C62.3,109.4,0,53.3,0,25.6z"/>
			</g>
		</g>
		<g transform="translate(868,252) scale(0.28,0.28)">
			<g transform="">
				<rect x="0" y="0" width="100" height="100"/>
			</g>
		</g>
		<g transform="translate(952,252) scale(0.28,0.28)">
			<g transform="">
				<g>
					<path d="M100,0H0v65.6c0,9.5,3.4,17.6,10.1,24.3S24.9,100,34.4,100H100V0z"/>
				</g>
			</g>
		</g>
		<g transform="translate(980,252) scale(0.28,0.28)">
			<g transform="">
				<rect x="0" y="0" width="100" height="100"/>
			</g>
		</g>
		<g transform="translate(28,280) scale(0.28,0.28)">
			<g transform="">
				<g>
					<path d="M100,34.4V0H34.4c-9.5,0-17.6,3.4-24.3,10.1S0,24.9,0,34.4V100h100V34.4z"/>
				</g>
			</g>
		</g>
		<g transform="translate(56,280) scale(0.28,0.28)">
			<g transform="">
				<g>
					<path d="M100,34.4c0-9.5-3.4-17.6-10.1-24.3S75.1,0,65.6,0H0v100h100V34.4z"/>
				</g>
			</g>
		</g>
		<g transform="translate(112,280) scale(0.28,0.28)">
			<g transform="">
				<path d="M0,25.6C0,13.9,0-1,0-1s34,0,50,0c12.5,0,50,0,50,0v25.1c0,0,2.1,65.5-13.5,73.3C62.3,109.4,0,53.3,0,25.6z"/>
			</g>
		</g>
		<g transform="translate(168,280) scale(0.28,0.28)">
			<g transform="">
				<path d="M73.4,0C85.1,0,100,0,100,0s0,34,0,50c0,12.5,0,50,0,50H74.9c0,0-65.5,2.1-73.3-13.5C-10.4,62.3,45.7,0,73.4,0z"/>
			</g>
		</g>
		<g transform="translate(196,280) scale(0.28,0.28)">
			<g transform="">
				<rect x="0" y="0" width="100" height="100"/>
			</g>
		</g>
		<g transform="translate(224,280) scale(0.28,0.28)">
			<g transform="">
				<g>
					<path d="M100,34.4c0-9.5-3.4-17.6-10.1-24.3S75.1,0,65.6,0H0v100h100V34.4z"/>
				</g>
			</g>
		</g>
		<g transform="translate(504,280) scale(0.28,0.28)">
			<g transform="">
				<g>
					<path d="M95.3,84C120.4,37.1,29.5-30.2,4.6,16.1C-20.4,62.9,70.6,130.1,95.3,84"/>
				</g>
			</g>
		</g>
		<g transform="translate(588,280) scale(0.28,0.28)">
			<g transform="">
				<g>
					<path d="M100,34.4V0H34.4c-9.5,0-17.6,3.4-24.3,10.1S0,24.9,0,34.4V100h100V34.4z"/>
				</g>
			</g>
		</g>
		<g transform="translate(616,280) scale(0.28,0.28)">
			<g transform="">
				<g>
					<path d="M100,34.4c0-9.5-3.4-17.6-10.1-24.3S75.1,0,65.6,0H0v100h100V34.4z"/>
				</g>
			</g>
		</g>
		<g transform="translate(700,280) scale(0.28,0.28)">
			<g transform="">
				<g>
					<path d="M100,0H0v65.6c0,9.5,3.4,17.6,10.1,24.3S24.9,100,34.4,100H100V0z"/>
				</g>
			</g>
		</g>
		<g transform="translate(728,280) scale(0.28,0.28)">
			<g transform="">
				<rect x="0" y="0" width="100" height="100"/>
			</g>
		</g>
		<g transform="translate(756,280) scale(0.28,0.28)">
			<g transform="">
				<g>
					<path d="M100,34.4c0-9.5-3.4-17.6-10.1-24.3S75.1,0,65.6,0H0v100h100V34.4z"/>
				</g>
			</g>
		</g>
		<g transform="translate(840,280) scale(0.28,0.28)">
			<g transform="">
				<g>
					<path d="M100,34.4V0H34.4c-9.5,0-17.6,3.4-24.3,10.1S0,24.9,0,34.4V100h100V34.4z"/>
				</g>
			</g>
		</g>
		<g transform="translate(868,280) scale(0.28,0.28)">
			<g transform="">
				<rect x="0" y="0" width="100" height="100"/>
			</g>
		</g>
		<g transform="translate(924,280) scale(0.28,0.28)">
			<g transform="">
				<g>
					<path d="M95.3,84C120.4,37.1,29.5-30.2,4.6,16.1C-20.4,62.9,70.6,130.1,95.3,84"/>
				</g>
			</g>
		</g>
		<g transform="translate(980,280) scale(0.28,0.28)">
			<g transform="">
				<rect x="0" y="0" width="100" height="100"/>
			</g>
		</g>
		<g transform="translate(1008,280) scale(0.28,0.28)">
			<g transform="">
				<g>
					<path d="M100,34.4c0-9.5-3.4-17.6-10.1-24.3S75.1,0,65.6,0H0v100h100V34.4z"/>
				</g>
			</g>
		</g>
		<g transform="translate(28,308) scale(0.28,0.28)">
			<g transform="">
				<g>
					<path d="M100,0H0v65.6c0,9.5,3.4,17.6,10.1,24.3S24.9,100,34.4,100H100V0z"/>
				</g>
			</g>
		</g>
		<g transform="translate(56,308) scale(0.28,0.28)">
			<g transform="">
				<rect x="0" y="0" width="100" height="100"/>
			</g>
		</g>
		<g transform="translate(84,308) scale(0.28,0.28)">
			<g transform="">
				<path d="M26.6,100C14.9,100,0,100,0,100s0-34,0-50c0-12.5,0-50,0-50h25.1c0,0,64.5-2.1,72.3,13.5C109.4,37.7,54.3,100,26.6,100z
					"/>
			</g>
		</g>
		<g transform="translate(224,308) scale(0.28,0.28)">
			<g transform="">
				<rect x="0" y="0" width="100" height="100"/>
			</g>
		</g>
		<g transform="translate(252,308) scale(0.28,0.28)">
			<g transform="">
				<path d="M26.6,100C14.9,100,0,100,0,100s0-34,0-50c0-12.5,0-50,0-50h25.1c0,0,64.5-2.1,72.3,13.5C109.4,37.7,54.3,100,26.6,100z
					"/>
			</g>
		</g>
		<g transform="translate(308,308) scale(0.28,0.28)">
			<g transform="">
				<g>
					<path d="M95.3,84C120.4,37.1,29.5-30.2,4.6,16.1C-20.4,62.9,70.6,130.1,95.3,84"/>
				</g>
			</g>
		</g>
		<g transform="translate(364,308) scale(0.28,0.28)">
			<g transform="">
				<g>
					<path d="M100,34.4V0H34.4c-9.5,0-17.6,3.4-24.3,10.1S0,24.9,0,34.4V100h100V34.4z"/>
				</g>
			</g>
		</g>
		<g transform="translate(392,308) scale(0.28,0.28)">
			<g transform="">
				<rect x="0" y="0" width="100" height="100"/>
			</g>
		</g>
		<g transform="translate(420,308) scale(0.28,0.28)">
			<g transform="">
				<rect x="0" y="0" width="100" height="100"/>
			</g>
		</g>
		<g transform="translate(448,308) scale(0.28,0.28)">
			<g transform="">
				<g>
					<path d="M100,34.4c0-9.5-3.4-17.6-10.1-24.3S75.1,0,65.6,0H0v100h100V34.4z"/>
				</g>
			</g>
		</g>
		<g transform="translate(588,308) scale(0.28,0.28)">
			<g transform="">
				<rect x="0" y="0" width="100" height="100"/>
			</g>
		</g>
		<g transform="translate(616,308) scale(0.28,0.28)">
			<g transform="">
				<rect x="0" y="0" width="100" height="100"/>
			</g>
		</g>
		<g transform="translate(644,308) scale(0.28,0.28)">
			<g transform="">
				<rect x="0" y="0" width="100" height="100"/>
			</g>
		</g>
		<g transform="translate(672,308) scale(0.28,0.28)">
			<g transform="">
				<path d="M26.6,100C14.9,100,0,100,0,100s0-34,0-50c0-12.5,0-50,0-50h25.1c0,0,64.5-2.1,72.3,13.5C109.4,37.7,54.3,100,26.6,100z
					"/>
			</g>
		</g>
		<g transform="translate(728,308) scale(0.28,0.28)">
			<g transform="">
				<rect x="0" y="0" width="100" height="100"/>
			</g>
		</g>
		<g transform="translate(756,308) scale(0.28,0.28)">
			<g transform="">
				<g>
					<path d="M100,0H0v100h65.6c9.5,0,17.6-3.4,24.3-10.1S100,75.1,100,65.6V0z"/>
				</g>
			</g>
		</g>
		<g transform="translate(840,308) scale(0.28,0.28)">
			<g transform="">
				<rect x="0" y="0" width="100" height="100"/>
			</g>
		</g>
		<g transform="translate(868,308) scale(0.28,0.28)">
			<g transform="">
				<rect x="0" y="0" width="100" height="100"/>
			</g>
		</g>
		<g transform="translate(896,308) scale(0.28,0.28)">
			<g transform="">
				<g>
					<path d="M100,34.4c0-9.5-3.4-17.6-10.1-24.3S75.1,0,65.6,0H0v100h100V34.4z"/>
				</g>
			</g>
		</g>
		<g transform="translate(980,308) scale(0.28,0.28)">
			<g transform="">
				<rect x="0" y="0" width="100" height="100"/>
			</g>
		</g>
		<g transform="translate(1008,308) scale(0.28,0.28)">
			<g transform="">
				<rect x="0" y="0" width="100" height="100"/>
			</g>
		</g>
		<g transform="translate(56,336) scale(0.28,0.28)">
			<g transform="">
				<rect x="0" y="0" width="100" height="100"/>
			</g>
		</g>
		<g transform="translate(112,336) scale(0.28,0.28)">
			<g transform="">
				<g>
					<path d="M95.3,84C120.4,37.1,29.5-30.2,4.6,16.1C-20.4,62.9,70.6,130.1,95.3,84"/>
				</g>
			</g>
		</g>
		<g transform="translate(168,336) scale(0.28,0.28)">
			<g transform="">
				<g>
					<path d="M95.3,84C120.4,37.1,29.5-30.2,4.6,16.1C-20.4,62.9,70.6,130.1,95.3,84"/>
				</g>
			</g>
		</g>
		<g transform="translate(224,336) scale(0.28,0.28)">
			<g transform="">
				<path d="M0,25.6C0,13.9,0-1,0-1s34,0,50,0c12.5,0,50,0,50,0v25.1c0,0,2.1,65.5-13.5,73.3C62.3,109.4,0,53.3,0,25.6z"/>
			</g>
		</g>
		<g transform="translate(280,336) scale(0.28,0.28)">
			<g transform="">
				<path d="M100,73.4c0,11.7,0,26.6,0,26.6s-34,0-50,0c-12.5,0-50,0-50,0V74.9c0,0-2.1-65.5,13.5-73.3C37.7-10.4,100,45.7,100,73.4
					z"/>
			</g>
		</g>
		<g transform="translate(336,336) scale(0.28,0.28)">
			<g transform="">
				<path d="M73.4,0C85.1,0,100,0,100,0s0,34,0,50c0,12.5,0,50,0,50H74.9c0,0-65.5,2.1-73.3-13.5C-10.4,62.3,45.7,0,73.4,0z"/>
			</g>
		</g>
		<g transform="translate(364,336) scale(0.28,0.28)">
			<g transform="">
				<rect x="0" y="0" width="100" height="100"/>
			</g>
		</g>
		<g transform="translate(392,336) scale(0.28,0.28)">
			<g transform="">
				<g>
					<path d="M100,0H0v100h65.6c9.5,0,17.6-3.4,24.3-10.1S100,75.1,100,65.6V0z"/>
				</g>
			</g>
		</g>
		<g transform="translate(448,336) scale(0.28,0.28)">
			<g transform="">
				<g>
					<path d="M100,0H0v65.6c0,9.5,3.4,17.6,10.1,24.3S24.9,100,34.4,100H100V0z"/>
				</g>
			</g>
		</g>
		<g transform="translate(476,336) scale(0.28,0.28)">
			<g transform="">
				<rect x="0" y="0" width="100" height="100"/>
			</g>
		</g>
		<g transform="translate(504,336) scale(0.28,0.28)">
			<g transform="">
				<path d="M26.6,100C14.9,100,0,100,0,100s0-34,0-50c0-12.5,0-50,0-50h25.1c0,0,64.5-2.1,72.3,13.5C109.4,37.7,54.3,100,26.6,100z
					"/>
			</g>
		</g>
		<g transform="translate(588,336) scale(0.28,0.28)">
			<g transform="">
				<g>
					<path d="M100,0H0v65.6c0,9.5,3.4,17.6,10.1,24.3S24.9,100,34.4,100H100V0z"/>
				</g>
			</g>
		</g>
		<g transform="translate(616,336) scale(0.28,0.28)">
			<g transform="">
				<rect x="0" y="0" width="100" height="100"/>
			</g>
		</g>
		<g transform="translate(644,336) scale(0.28,0.28)">
			<g transform="">
				<g>
					<path d="M100,0H0v100h65.6c9.5,0,17.6-3.4,24.3-10.1S100,75.1,100,65.6V0z"/>
				</g>
			</g>
		</g>
		<g transform="translate(700,336) scale(0.28,0.28)">
			<g transform="">
				<g>
					<path d="M100,34.4V0H34.4c-9.5,0-17.6,3.4-24.3,10.1S0,24.9,0,34.4V100h100V34.4z"/>
				</g>
			</g>
		</g>
		<g transform="translate(728,336) scale(0.28,0.28)">
			<g transform="">
				<rect x="0" y="0" width="100" height="100"/>
			</g>
		</g>
		<g transform="translate(812,336) scale(0.28,0.28)">
			<g transform="">
				<g>
					<path d="M100,34.4V0H34.4c-9.5,0-17.6,3.4-24.3,10.1S0,24.9,0,34.4V100h100V34.4z"/>
				</g>
			</g>
		</g>
		<g transform="translate(840,336) scale(0.28,0.28)">
			<g transform="">
				<g>
					<path d="M100,0H0v100h65.6c9.5,0,17.6-3.4,24.3-10.1S100,75.1,100,65.6V0z"/>
				</g>
			</g>
		</g>
		<g transform="translate(896,336) scale(0.28,0.28)">
			<g transform="">
				<path d="M0,25.6C0,13.9,0-1,0-1s34,0,50,0c12.5,0,50,0,50,0v25.1c0,0,2.1,65.5-13.5,73.3C62.3,109.4,0,53.3,0,25.6z"/>
			</g>
		</g>
		<g transform="translate(952,336) scale(0.28,0.28)">
			<g transform="">
				<g>
					<path d="M100,34.4V0H34.4c-9.5,0-17.6,3.4-24.3,10.1S0,24.9,0,34.4V100h100V34.4z"/>
				</g>
			</g>
		</g>
		<g transform="translate(980,336) scale(0.28,0.28)">
			<g transform="">
				<rect x="0" y="0" width="100" height="100"/>
			</g>
		</g>
		<g transform="translate(1008,336) scale(0.28,0.28)">
			<g transform="">
				<g>
					<path d="M100,0H0v100h65.6c9.5,0,17.6-3.4,24.3-10.1S100,75.1,100,65.6V0z"/>
				</g>
			</g>
		</g>
		<g transform="translate(0,364) scale(0.28,0.28)">
			<g transform="">
				<g>
					<path d="M100,34.4V0H34.4c-9.5,0-17.6,3.4-24.3,10.1S0,24.9,0,34.4V100h100V34.4z"/>
				</g>
			</g>
		</g>
		<g transform="translate(28,364) scale(0.28,0.28)">
			<g transform="">
				<rect x="0" y="0" width="100" height="100"/>
			</g>
		</g>
		<g transform="translate(56,364) scale(0.28,0.28)">
			<g transform="">
				<g>
					<path d="M100,0H0v100h65.6c9.5,0,17.6-3.4,24.3-10.1S100,75.1,100,65.6V0z"/>
				</g>
			</g>
		</g>
		<g transform="translate(140,364) scale(0.28,0.28)">
			<g transform="">
				<g>
					<path d="M95.3,84C120.4,37.1,29.5-30.2,4.6,16.1C-20.4,62.9,70.6,130.1,95.3,84"/>
				</g>
			</g>
		</g>
		<g transform="translate(196,364) scale(0.28,0.28)">
			<g transform="">
				<g>
					<path d="M95.3,84C120.4,37.1,29.5-30.2,4.6,16.1C-20.4,62.9,70.6,130.1,95.3,84"/>
				</g>
			</g>
		</g>
		<g transform="translate(252,364) scale(0.28,0.28)">
			<g transform="">
				<g>
					<path d="M100,34.4V0H34.4c-9.5,0-17.6,3.4-24.3,10.1S0,24.9,0,34.4V100h100V34.4z"/>
				</g>
			</g>
		</g>
		<g transform="translate(280,364) scale(0.28,0.28)">
			<g transform="">
				<g>
					<path d="M100,0H0v100h65.6c9.5,0,17.6-3.4,24.3-10.1S100,75.1,100,65.6V0z"/>
				</g>
			</g>
		</g>
		<g transform="translate(700,364) scale(0.28,0.28)">
			<g transform="">
				<rect x="0" y="0" width="100" height="100"/>
			</g>
		</g>
		<g transform="translate(728,364) scale(0.28,0.28)">
			<g transform="">
				<rect x="0" y="0" width="100" height="100"/>
			</g>
		</g>
		<g transform="translate(812,364) scale(0.28,0.28)">
			<g transform="">
				<path d="M0,25.6C0,13.9,0-1,0-1s34,0,50,0c12.5,0,50,0,50,0v25.1c0,0,2.1,65.5-13.5,73.3C62.3,109.4,0,53.3,0,25.6z"/>
			</g>
		</g>
		<g transform="translate(868,364) scale(0.28,0.28)">
			<g transform="">
				<path d="M100,73.4c0,11.7,0,26.6,0,26.6s-34,0-50,0c-12.5,0-50,0-50,0V74.9c0,0-2.1-65.5,13.5-73.3C37.7-10.4,100,45.7,100,73.4
					z"/>
			</g>
		</g>
		<g transform="translate(924,364) scale(0.28,0.28)">
			<g transform="">
				<g>
					<path d="M100,34.4V0H34.4c-9.5,0-17.6,3.4-24.3,10.1S0,24.9,0,34.4V100h100V34.4z"/>
				</g>
			</g>
		</g>
		<g transform="translate(952,364) scale(0.28,0.28)">
			<g transform="">
				<g>
					<path d="M100,0H0v100h65.6c9.5,0,17.6-3.4,24.3-10.1S100,75.1,100,65.6V0z"/>
				</g>
			</g>
		</g>
		<g transform="translate(0,392) scale(0.28,0.28)">
			<g transform="">
				<rect x="0" y="0" width="100" height="100"/>
			</g>
		</g>
		<g transform="translate(28,392) scale(0.28,0.28)">
			<g transform="">
				<rect x="0" y="0" width="100" height="100"/>
			</g>
		</g>
		<g transform="translate(84,392) scale(0.28,0.28)">
			<g transform="">
				<g>
					<path d="M95.3,84C120.4,37.1,29.5-30.2,4.6,16.1C-20.4,62.9,70.6,130.1,95.3,84"/>
				</g>
			</g>
		</g>
		<g transform="translate(168,392) scale(0.28,0.28)">
			<g transform="">
				<g>
					<path d="M95.3,84C120.4,37.1,29.5-30.2,4.6,16.1C-20.4,62.9,70.6,130.1,95.3,84"/>
				</g>
			</g>
		</g>
		<g transform="translate(252,392) scale(0.28,0.28)">
			<g transform="">
				<rect x="0" y="0" width="100" height="100"/>
			</g>
		</g>
		<g transform="translate(672,392) scale(0.28,0.28)">
			<g transform="">
				<path d="M73.4,0C85.1,0,100,0,100,0s0,34,0,50c0,12.5,0,50,0,50H74.9c0,0-65.5,2.1-73.3-13.5C-10.4,62.3,45.7,0,73.4,0z"/>
			</g>
		</g>
		<g transform="translate(700,392) scale(0.28,0.28)">
			<g transform="">
				<rect x="0" y="0" width="100" height="100"/>
			</g>
		</g>
		<g transform="translate(728,392) scale(0.28,0.28)">
			<g transform="">
				<rect x="0" y="0" width="100" height="100"/>
			</g>
		</g>
		<g transform="translate(756,392) scale(0.28,0.28)">
			<g transform="">
				<rect x="0" y="0" width="100" height="100"/>
			</g>
		</g>
		<g transform="translate(784,392) scale(0.28,0.28)">
			<g transform="">
				<path d="M26.6,100C14.9,100,0,100,0,100s0-34,0-50c0-12.5,0-50,0-50h25.1c0,0,64.5-2.1,72.3,13.5C109.4,37.7,54.3,100,26.6,100z
					"/>
			</g>
		</g>
		<g transform="translate(840,392) scale(0.28,0.28)">
			<g transform="">
				<g>
					<path d="M100,34.4V0H34.4c-9.5,0-17.6,3.4-24.3,10.1S0,24.9,0,34.4V100h100V34.4z"/>
				</g>
			</g>
		</g>
		<g transform="translate(868,392) scale(0.28,0.28)">
			<g transform="">
				<g>
					<path d="M100,0H0v100h65.6c9.5,0,17.6-3.4,24.3-10.1S100,75.1,100,65.6V0z"/>
				</g>
			</g>
		</g>
		<g transform="translate(924,392) scale(0.28,0.28)">
			<g transform="">
				<path d="M0,25.6C0,13.9,0-1,0-1s34,0,50,0c12.5,0,50,0,50,0v25.1c0,0,2.1,65.5-13.5,73.3C62.3,109.4,0,53.3,0,25.6z"/>
			</g>
		</g>
		<g transform="translate(1008,392) scale(0.28,0.28)">
			<g transform="">
				<g>
					<path d="M95.3,84C120.4,37.1,29.5-30.2,4.6,16.1C-20.4,62.9,70.6,130.1,95.3,84"/>
				</g>
			</g>
		</g>
		<g transform="translate(0,420) scale(0.28,0.28)">
			<g transform="">
				<g>
					<path d="M100,0H0v65.6c0,9.5,3.4,17.6,10.1,24.3S24.9,100,34.4,100H100V0z"/>
				</g>
			</g>
		</g>
		<g transform="translate(28,420) scale(0.28,0.28)">
			<g transform="">
				<g>
					<path d="M100,0H0v100h65.6c9.5,0,17.6-3.4,24.3-10.1S100,75.1,100,65.6V0z"/>
				</g>
			</g>
		</g>
		<g transform="translate(112,420) scale(0.28,0.28)">
			<g transform="">
				<g>
					<path d="M95.3,84C120.4,37.1,29.5-30.2,4.6,16.1C-20.4,62.9,70.6,130.1,95.3,84"/>
				</g>
			</g>
		</g>
		<g transform="translate(252,420) scale(0.28,0.28)">
			<g transform="">
				<g>
					<path d="M100,0H0v65.6c0,9.5,3.4,17.6,10.1,24.3S24.9,100,34.4,100H100V0z"/>
				</g>
			</g>
		</g>
		<g transform="translate(280,420) scale(0.28,0.28)">
			<g transform="">
				<rect x="0" y="0" width="100" height="100"/>
			</g>
		</g>
		<g transform="translate(308,420) scale(0.28,0.28)">
			<g transform="">
				<rect x="0" y="0" width="100" height="100"/>
			</g>
		</g>
		<g transform="translate(336,420) scale(0.28,0.28)">
			<g transform="">
				<g>
					<path d="M100,34.4c0-9.5-3.4-17.6-10.1-24.3S75.1,0,65.6,0H0v100h100V34.4z"/>
				</g>
			</g>
		</g>
		<g transform="translate(728,420) scale(0.28,0.28)">
			<g transform="">
				<path d="M0,25.6C0,13.9,0-1,0-1s34,0,50,0c12.5,0,50,0,50,0v25.1c0,0,2.1,65.5-13.5,73.3C62.3,109.4,0,53.3,0,25.6z"/>
			</g>
		</g>
		<g transform="translate(840,420) scale(0.28,0.28)">
			<g transform="">
				<rect x="0" y="0" width="100" height="100"/>
			</g>
		</g>
		<g transform="translate(896,420) scale(0.28,0.28)">
			<g transform="">
				<path d="M100,73.4c0,11.7,0,26.6,0,26.6s-34,0-50,0c-12.5,0-50,0-50,0V74.9c0,0-2.1-65.5,13.5-73.3C37.7-10.4,100,45.7,100,73.4
					z"/>
			</g>
		</g>
		<g transform="translate(980,420) scale(0.28,0.28)">
			<g transform="">
				<path d="M100,73.4c0,11.7,0,26.6,0,26.6s-34,0-50,0c-12.5,0-50,0-50,0V74.9c0,0-2.1-65.5,13.5-73.3C37.7-10.4,100,45.7,100,73.4
					z"/>
			</g>
		</g>
		<g transform="translate(140,448) scale(0.28,0.28)">
			<g transform="">
				<g>
					<path d="M100,34.4V0H34.4c-9.5,0-17.6,3.4-24.3,10.1S0,24.9,0,34.4V100h100V34.4z"/>
				</g>
			</g>
		</g>
		<g transform="translate(168,448) scale(0.28,0.28)">
			<g transform="">
				<path d="M26.6,100C14.9,100,0,100,0,100s0-34,0-50c0-12.5,0-50,0-50h25.1c0,0,64.5-2.1,72.3,13.5C109.4,37.7,54.3,100,26.6,100z
					"/>
			</g>
		</g>
		<g transform="translate(336,448) scale(0.28,0.28)">
			<g transform="">
				<path d="M0,25.6C0,13.9,0-1,0-1s34,0,50,0c12.5,0,50,0,50,0v25.1c0,0,2.1,65.5-13.5,73.3C62.3,109.4,0,53.3,0,25.6z"/>
			</g>
		</g>
		<g transform="translate(672,448) scale(0.28,0.28)">
			<g transform="">
				<g>
					<path d="M100,34.4V0H34.4c-9.5,0-17.6,3.4-24.3,10.1S0,24.9,0,34.4V100h100V34.4z"/>
				</g>
			</g>
		</g>
		<g transform="translate(700,448) scale(0.28,0.28)">
			<g transform="">
				<g>
					<path d="M100,34.4c0-9.5-3.4-17.6-10.1-24.3S75.1,0,65.6,0H0v100h100V34.4z"/>
				</g>
			</g>
		</g>
		<g transform="translate(756,448) scale(0.28,0.28)">
			<g transform="">
				<path d="M73.4,0C85.1,0,100,0,100,0s0,34,0,50c0,12.5,0,50,0,50H74.9c0,0-65.5,2.1-73.3-13.5C-10.4,62.3,45.7,0,73.4,0z"/>
			</g>
		</g>
		<g transform="translate(784,448) scale(0.28,0.28)">
			<g transform="">
				<rect x="0" y="0" width="100" height="100"/>
			</g>
		</g>
		<g transform="translate(812,448) scale(0.28,0.28)">
			<g transform="">
				<rect x="0" y="0" width="100" height="100"/>
			</g>
		</g>
		<g transform="translate(840,448) scale(0.28,0.28)">
			<g transform="">
				<rect x="0" y="0" width="100" height="100"/>
			</g>
		</g>
		<g transform="translate(868,448) scale(0.28,0.28)">
			<g transform="">
				<rect x="0" y="0" width="100" height="100"/>
			</g>
		</g>
		<g transform="translate(896,448) scale(0.28,0.28)">
			<g transform="">
				<g>
					<path d="M100,0H0v100h65.6c9.5,0,17.6-3.4,24.3-10.1S100,75.1,100,65.6V0z"/>
				</g>
			</g>
		</g>
		<g transform="translate(952,448) scale(0.28,0.28)">
			<g transform="">
				<g>
					<path d="M100,34.4V0H34.4c-9.5,0-17.6,3.4-24.3,10.1S0,24.9,0,34.4V100h100V34.4z"/>
				</g>
			</g>
		</g>
		<g transform="translate(980,448) scale(0.28,0.28)">
			<g transform="">
				<rect x="0" y="0" width="100" height="100"/>
			</g>
		</g>
		<g transform="translate(1008,448) scale(0.28,0.28)">
			<g transform="">
				<path d="M26.6,100C14.9,100,0,100,0,100s0-34,0-50c0-12.5,0-50,0-50h25.1c0,0,64.5-2.1,72.3,13.5C109.4,37.7,54.3,100,26.6,100z
					"/>
			</g>
		</g>
		<g transform="translate(84,476) scale(0.28,0.28)">
			<g transform="">
				<g>
					<path d="M95.3,84C120.4,37.1,29.5-30.2,4.6,16.1C-20.4,62.9,70.6,130.1,95.3,84"/>
				</g>
			</g>
		</g>
		<g transform="translate(140,476) scale(0.28,0.28)">
			<g transform="">
				<path d="M0,25.6C0,13.9,0-1,0-1s34,0,50,0c12.5,0,50,0,50,0v25.1c0,0,2.1,65.5-13.5,73.3C62.3,109.4,0,53.3,0,25.6z"/>
			</g>
		</g>
		<g transform="translate(308,476) scale(0.28,0.28)">
			<g transform="">
				<g>
					<path d="M95.3,84C120.4,37.1,29.5-30.2,4.6,16.1C-20.4,62.9,70.6,130.1,95.3,84"/>
				</g>
			</g>
		</g>
		<g transform="translate(672,476) scale(0.28,0.28)">
			<g transform="">
				<g>
					<path d="M100,0H0v65.6c0,9.5,3.4,17.6,10.1,24.3S24.9,100,34.4,100H100V0z"/>
				</g>
			</g>
		</g>
		<g transform="translate(700,476) scale(0.28,0.28)">
			<g transform="">
				<g>
					<path d="M100,0H0v100h65.6c9.5,0,17.6-3.4,24.3-10.1S100,75.1,100,65.6V0z"/>
				</g>
			</g>
		</g>
		<g transform="translate(784,476) scale(0.28,0.28)">
			<g transform="">
				<rect x="0" y="0" width="100" height="100"/>
			</g>
		</g>
		<g transform="translate(868,476) scale(0.28,0.28)">
			<g transform="">
				<rect x="0" y="0" width="100" height="100"/>
			</g>
		</g>
		<g transform="translate(952,476) scale(0.28,0.28)">
			<g transform="">
				<rect x="0" y="0" width="100" height="100"/>
			</g>
		</g>
		<g transform="translate(0,504) scale(0.28,0.28)">
			<g transform="">
				<path d="M73.4,0C85.1,0,100,0,100,0s0,34,0,50c0,12.5,0,50,0,50H74.9c0,0-65.5,2.1-73.3-13.5C-10.4,62.3,45.7,0,73.4,0z"/>
			</g>
		</g>
		<g transform="translate(28,504) scale(0.28,0.28)">
			<g transform="">
				<g>
					<path d="M100,34.4c0-9.5-3.4-17.6-10.1-24.3S75.1,0,65.6,0H0v100h100V34.4z"/>
				</g>
			</g>
		</g>
		<g transform="translate(112,504) scale(0.28,0.28)">
			<g transform="">
				<g>
					<path d="M95.3,84C120.4,37.1,29.5-30.2,4.6,16.1C-20.4,62.9,70.6,130.1,95.3,84"/>
				</g>
			</g>
		</g>
		<g transform="translate(168,504) scale(0.28,0.28)">
			<g transform="">
				<path d="M73.4,0C85.1,0,100,0,100,0s0,34,0,50c0,12.5,0,50,0,50H74.9c0,0-65.5,2.1-73.3-13.5C-10.4,62.3,45.7,0,73.4,0z"/>
			</g>
		</g>
		<g transform="translate(196,504) scale(0.28,0.28)">
			<g transform="">
				<rect x="0" y="0" width="100" height="100"/>
			</g>
		</g>
		<g transform="translate(224,504) scale(0.28,0.28)">
			<g transform="">
				<rect x="0" y="0" width="100" height="100"/>
			</g>
		</g>
		<g transform="translate(252,504) scale(0.28,0.28)">
			<g transform="">
				<path d="M26.6,100C14.9,100,0,100,0,100s0-34,0-50c0-12.5,0-50,0-50h25.1c0,0,64.5-2.1,72.3,13.5C109.4,37.7,54.3,100,26.6,100z
					"/>
			</g>
		</g>
		<g transform="translate(728,504) scale(0.28,0.28)">
			<g transform="">
				<path d="M73.4,0C85.1,0,100,0,100,0s0,34,0,50c0,12.5,0,50,0,50H74.9c0,0-65.5,2.1-73.3-13.5C-10.4,62.3,45.7,0,73.4,0z"/>
			</g>
		</g>
		<g transform="translate(756,504) scale(0.28,0.28)">
			<g transform="">
				<rect x="0" y="0" width="100" height="100"/>
			</g>
		</g>
		<g transform="translate(784,504) scale(0.28,0.28)">
			<g transform="">
				<g>
					<path d="M100,0H0v100h65.6c9.5,0,17.6-3.4,24.3-10.1S100,75.1,100,65.6V0z"/>
				</g>
			</g>
		</g>
		<g transform="translate(840,504) scale(0.28,0.28)">
			<g transform="">
				<path d="M73.4,0C85.1,0,100,0,100,0s0,34,0,50c0,12.5,0,50,0,50H74.9c0,0-65.5,2.1-73.3-13.5C-10.4,62.3,45.7,0,73.4,0z"/>
			</g>
		</g>
		<g transform="translate(868,504) scale(0.28,0.28)">
			<g transform="">
				<rect x="0" y="0" width="100" height="100"/>
			</g>
		</g>
		<g transform="translate(924,504) scale(0.28,0.28)">
			<g transform="">
				<path d="M73.4,0C85.1,0,100,0,100,0s0,34,0,50c0,12.5,0,50,0,50H74.9c0,0-65.5,2.1-73.3-13.5C-10.4,62.3,45.7,0,73.4,0z"/>
			</g>
		</g>
		<g transform="translate(952,504) scale(0.28,0.28)">
			<g transform="">
				<rect x="0" y="0" width="100" height="100"/>
			</g>
		</g>
		<g transform="translate(980,504) scale(0.28,0.28)">
			<g transform="">
				<rect x="0" y="0" width="100" height="100"/>
			</g>
		</g>
		<g transform="translate(1008,504) scale(0.28,0.28)">
			<g transform="">
				<path d="M26.6,100C14.9,100,0,100,0,100s0-34,0-50c0-12.5,0-50,0-50h25.1c0,0,64.5-2.1,72.3,13.5C109.4,37.7,54.3,100,26.6,100z
					"/>
			</g>
		</g>
		<g transform="translate(28,532) scale(0.28,0.28)">
			<g transform="">
				<g>
					<path d="M100,0H0v65.6c0,9.5,3.4,17.6,10.1,24.3S24.9,100,34.4,100H100V0z"/>
				</g>
			</g>
		</g>
		<g transform="translate(56,532) scale(0.28,0.28)">
			<g transform="">
				<rect x="0" y="0" width="100" height="100"/>
			</g>
		</g>
		<g transform="translate(84,532) scale(0.28,0.28)">
			<g transform="">
				<g>
					<path d="M100,34.4c0-9.5-3.4-17.6-10.1-24.3S75.1,0,65.6,0H0v100h100V34.4z"/>
				</g>
			</g>
		</g>
		<g transform="translate(196,532) scale(0.28,0.28)">
			<g transform="">
				<path d="M0,25.6C0,13.9,0-1,0-1s34,0,50,0c12.5,0,50,0,50,0v25.1c0,0,2.1,65.5-13.5,73.3C62.3,109.4,0,53.3,0,25.6z"/>
			</g>
		</g>
		<g transform="translate(280,532) scale(0.28,0.28)">
			<g transform="">
				<path d="M100,73.4c0,11.7,0,26.6,0,26.6s-34,0-50,0c-12.5,0-50,0-50,0V74.9c0,0-2.1-65.5,13.5-73.3C37.7-10.4,100,45.7,100,73.4
					z"/>
			</g>
		</g>
		<g transform="translate(336,532) scale(0.28,0.28)">
			<g transform="">
				<g>
					<path d="M95.3,84C120.4,37.1,29.5-30.2,4.6,16.1C-20.4,62.9,70.6,130.1,95.3,84"/>
				</g>
			</g>
		</g>
		<g transform="translate(812,532) scale(0.28,0.28)">
			<g transform="">
				<path d="M100,73.4c0,11.7,0,26.6,0,26.6s-34,0-50,0c-12.5,0-50,0-50,0V74.9c0,0-2.1-65.5,13.5-73.3C37.7-10.4,100,45.7,100,73.4
					z"/>
			</g>
		</g>
		<g transform="translate(868,532) scale(0.28,0.28)">
			<g transform="">
				<rect x="0" y="0" width="100" height="100"/>
			</g>
		</g>
		<g transform="translate(896,532) scale(0.28,0.28)">
			<g transform="">
				<g>
					<path d="M100,34.4c0-9.5-3.4-17.6-10.1-24.3S75.1,0,65.6,0H0v100h100V34.4z"/>
				</g>
			</g>
		</g>
		<g transform="translate(980,532) scale(0.28,0.28)">
			<g transform="">
				<path d="M0,25.6C0,13.9,0-1,0-1s34,0,50,0c12.5,0,50,0,50,0v25.1c0,0,2.1,65.5-13.5,73.3C62.3,109.4,0,53.3,0,25.6z"/>
			</g>
		</g>
		<g transform="translate(56,560) scale(0.28,0.28)">
			<g transform="">
				<rect x="0" y="0" width="100" height="100"/>
			</g>
		</g>
		<g transform="translate(84,560) scale(0.28,0.28)">
			<g transform="">
				<rect x="0" y="0" width="100" height="100"/>
			</g>
		</g>
		<g transform="translate(112,560) scale(0.28,0.28)">
			<g transform="">
				<g>
					<path d="M100,34.4c0-9.5-3.4-17.6-10.1-24.3S75.1,0,65.6,0H0v100h100V34.4z"/>
				</g>
			</g>
		</g>
		<g transform="translate(168,560) scale(0.28,0.28)">
			<g transform="">
				<g>
					<path d="M95.3,84C120.4,37.1,29.5-30.2,4.6,16.1C-20.4,62.9,70.6,130.1,95.3,84"/>
				</g>
			</g>
		</g>
		<g transform="translate(252,560) scale(0.28,0.28)">
			<g transform="">
				<path d="M73.4,0C85.1,0,100,0,100,0s0,34,0,50c0,12.5,0,50,0,50H74.9c0,0-65.5,2.1-73.3-13.5C-10.4,62.3,45.7,0,73.4,0z"/>
			</g>
		</g>
		<g transform="translate(280,560) scale(0.28,0.28)">
			<g transform="">
				<rect x="0" y="0" width="100" height="100"/>
			</g>
		</g>
		<g transform="translate(700,560) scale(0.28,0.28)">
			<g transform="">
				<g>
					<path d="M100,34.4V0H34.4c-9.5,0-17.6,3.4-24.3,10.1S0,24.9,0,34.4V100h100V34.4z"/>
				</g>
			</g>
		</g>
		<g transform="translate(728,560) scale(0.28,0.28)">
			<g transform="">
				<rect x="0" y="0" width="100" height="100"/>
			</g>
		</g>
		<g transform="translate(756,560) scale(0.28,0.28)">
			<g transform="">
				<path d="M26.6,100C14.9,100,0,100,0,100s0-34,0-50c0-12.5,0-50,0-50h25.1c0,0,64.5-2.1,72.3,13.5C109.4,37.7,54.3,100,26.6,100z
					"/>
			</g>
		</g>
		<g transform="translate(812,560) scale(0.28,0.28)">
			<g transform="">
				<g>
					<path d="M100,0H0v65.6c0,9.5,3.4,17.6,10.1,24.3S24.9,100,34.4,100H100V0z"/>
				</g>
			</g>
		</g>
		<g transform="translate(840,560) scale(0.28,0.28)">
			<g transform="">
				<rect x="0" y="0" width="100" height="100"/>
			</g>
		</g>
		<g transform="translate(868,560) scale(0.28,0.28)">
			<g transform="">
				<rect x="0" y="0" width="100" height="100"/>
			</g>
		</g>
		<g transform="translate(896,560) scale(0.28,0.28)">
			<g transform="">
				<rect x="0" y="0" width="100" height="100"/>
			</g>
		</g>
		<g transform="translate(924,560) scale(0.28,0.28)">
			<g transform="">
				<rect x="0" y="0" width="100" height="100"/>
			</g>
		</g>
		<g transform="translate(952,560) scale(0.28,0.28)">
			<g transform="">
				<path d="M26.6,100C14.9,100,0,100,0,100s0-34,0-50c0-12.5,0-50,0-50h25.1c0,0,64.5-2.1,72.3,13.5C109.4,37.7,54.3,100,26.6,100z
					"/>
			</g>
		</g>
		<g transform="translate(56,588) scale(0.28,0.28)">
			<g transform="">
				<path d="M0,25.6C0,13.9,0-1,0-1s34,0,50,0c12.5,0,50,0,50,0v25.1c0,0,2.1,65.5-13.5,73.3C62.3,109.4,0,53.3,0,25.6z"/>
			</g>
		</g>
		<g transform="translate(112,588) scale(0.28,0.28)">
			<g transform="">
				<g>
					<path d="M100,0H0v65.6c0,9.5,3.4,17.6,10.1,24.3S24.9,100,34.4,100H100V0z"/>
				</g>
			</g>
		</g>
		<g transform="translate(140,588) scale(0.28,0.28)">
			<g transform="">
				<g>
					<path d="M100,34.4c0-9.5-3.4-17.6-10.1-24.3S75.1,0,65.6,0H0v100h100V34.4z"/>
				</g>
			</g>
		</g>
		<g transform="translate(224,588) scale(0.28,0.28)">
			<g transform="">
				<g>
					<path d="M95.3,84C120.4,37.1,29.5-30.2,4.6,16.1C-20.4,62.9,70.6,130.1,95.3,84"/>
				</g>
			</g>
		</g>
		<g transform="translate(280,588) scale(0.28,0.28)">
			<g transform="">
				<g>
					<path d="M100,0H0v65.6c0,9.5,3.4,17.6,10.1,24.3S24.9,100,34.4,100H100V0z"/>
				</g>
			</g>
		</g>
		<g transform="translate(308,588) scale(0.28,0.28)">
			<g transform="">
				<path d="M26.6,100C14.9,100,0,100,0,100s0-34,0-50c0-12.5,0-50,0-50h25.1c0,0,64.5-2.1,72.3,13.5C109.4,37.7,54.3,100,26.6,100z
					"/>
			</g>
		</g>
		<g transform="translate(672,588) scale(0.28,0.28)">
			<g transform="">
				<g>
					<path d="M100,34.4V0H34.4c-9.5,0-17.6,3.4-24.3,10.1S0,24.9,0,34.4V100h100V34.4z"/>
				</g>
			</g>
		</g>
		<g transform="translate(700,588) scale(0.28,0.28)">
			<g transform="">
				<g>
					<path d="M100,0H0v100h65.6c9.5,0,17.6-3.4,24.3-10.1S100,75.1,100,65.6V0z"/>
				</g>
			</g>
		</g>
		<g transform="translate(868,588) scale(0.28,0.28)">
			<g transform="">
				<path d="M0,25.6C0,13.9,0-1,0-1s34,0,50,0c12.5,0,50,0,50,0v25.1c0,0,2.1,65.5-13.5,73.3C62.3,109.4,0,53.3,0,25.6z"/>
			</g>
		</g>
		<g transform="translate(924,588) scale(0.28,0.28)">
			<g transform="">
				<rect x="0" y="0" width="100" height="100"/>
			</g>
		</g>
		<g transform="translate(0,616) scale(0.28,0.28)">
			<g transform="">
				<g>
					<path d="M100,34.4V0H34.4c-9.5,0-17.6,3.4-24.3,10.1S0,24.9,0,34.4V100h100V34.4z"/>
				</g>
			</g>
		</g>
		<g transform="translate(28,616) scale(0.28,0.28)">
			<g transform="">
				<g>
					<path d="M100,34.4c0-9.5-3.4-17.6-10.1-24.3S75.1,0,65.6,0H0v100h100V34.4z"/>
				</g>
			</g>
		</g>
		<g transform="translate(84,616) scale(0.28,0.28)">
			<g transform="">
				<g>
					<path d="M95.3,84C120.4,37.1,29.5-30.2,4.6,16.1C-20.4,62.9,70.6,130.1,95.3,84"/>
				</g>
			</g>
		</g>
		<g transform="translate(140,616) scale(0.28,0.28)">
			<g transform="">
				<rect x="0" y="0" width="100" height="100"/>
			</g>
		</g>
		<g transform="translate(168,616) scale(0.28,0.28)">
			<g transform="">
				<rect x="0" y="0" width="100" height="100"/>
			</g>
		</g>
		<g transform="translate(196,616) scale(0.28,0.28)">
			<g transform="">
				<path d="M26.6,100C14.9,100,0,100,0,100s0-34,0-50c0-12.5,0-50,0-50h25.1c0,0,64.5-2.1,72.3,13.5C109.4,37.7,54.3,100,26.6,100z
					"/>
			</g>
		</g>
		<g transform="translate(336,616) scale(0.28,0.28)">
			<g transform="">
				<path d="M100,73.4c0,11.7,0,26.6,0,26.6s-34,0-50,0c-12.5,0-50,0-50,0V74.9c0,0-2.1-65.5,13.5-73.3C37.7-10.4,100,45.7,100,73.4
					z"/>
			</g>
		</g>
		<g transform="translate(672,616) scale(0.28,0.28)">
			<g transform="">
				<path d="M0,25.6C0,13.9,0-1,0-1s34,0,50,0c12.5,0,50,0,50,0v25.1c0,0,2.1,65.5-13.5,73.3C62.3,109.4,0,53.3,0,25.6z"/>
			</g>
		</g>
		<g transform="translate(728,616) scale(0.28,0.28)">
			<g transform="">
				<g>
					<path d="M100,34.4V0H34.4c-9.5,0-17.6,3.4-24.3,10.1S0,24.9,0,34.4V100h100V34.4z"/>
				</g>
			</g>
		</g>
		<g transform="translate(756,616) scale(0.28,0.28)">
			<g transform="">
				<path d="M26.6,100C14.9,100,0,100,0,100s0-34,0-50c0-12.5,0-50,0-50h25.1c0,0,64.5-2.1,72.3,13.5C109.4,37.7,54.3,100,26.6,100z
					"/>
			</g>
		</g>
		<g transform="translate(812,616) scale(0.28,0.28)">
			<g transform="">
				<path d="M100,73.4c0,11.7,0,26.6,0,26.6s-34,0-50,0c-12.5,0-50,0-50,0V74.9c0,0-2.1-65.5,13.5-73.3C37.7-10.4,100,45.7,100,73.4
					z"/>
			</g>
		</g>
		<g transform="translate(924,616) scale(0.28,0.28)">
			<g transform="">
				<g>
					<path d="M100,0H0v65.6c0,9.5,3.4,17.6,10.1,24.3S24.9,100,34.4,100H100V0z"/>
				</g>
			</g>
		</g>
		<g transform="translate(952,616) scale(0.28,0.28)">
			<g transform="">
				<rect x="0" y="0" width="100" height="100"/>
			</g>
		</g>
		<g transform="translate(980,616) scale(0.28,0.28)">
			<g transform="">
				<rect x="0" y="0" width="100" height="100"/>
			</g>
		</g>
		<g transform="translate(1008,616) scale(0.28,0.28)">
			<g transform="">
				<g>
					<path d="M100,34.4c0-9.5-3.4-17.6-10.1-24.3S75.1,0,65.6,0H0v100h100V34.4z"/>
				</g>
			</g>
		</g>
		<g transform="translate(0,644) scale(0.28,0.28)">
			<g transform="">
				<g>
					<path d="M100,0H0v65.6c0,9.5,3.4,17.6,10.1,24.3S24.9,100,34.4,100H100V0z"/>
				</g>
			</g>
		</g>
		<g transform="translate(28,644) scale(0.28,0.28)">
			<g transform="">
				<rect x="0" y="0" width="100" height="100"/>
			</g>
		</g>
		<g transform="translate(56,644) scale(0.28,0.28)">
			<g transform="">
				<g>
					<path d="M100,34.4c0-9.5-3.4-17.6-10.1-24.3S75.1,0,65.6,0H0v100h100V34.4z"/>
				</g>
			</g>
		</g>
		<g transform="translate(140,644) scale(0.28,0.28)">
			<g transform="">
				<path d="M0,25.6C0,13.9,0-1,0-1s34,0,50,0c12.5,0,50,0,50,0v25.1c0,0,2.1,65.5-13.5,73.3C62.3,109.4,0,53.3,0,25.6z"/>
			</g>
		</g>
		<g transform="translate(252,644) scale(0.28,0.28)">
			<g transform="">
				<path d="M100,73.4c0,11.7,0,26.6,0,26.6s-34,0-50,0c-12.5,0-50,0-50,0V74.9c0,0-2.1-65.5,13.5-73.3C37.7-10.4,100,45.7,100,73.4
					z"/>
			</g>
		</g>
		<g transform="translate(308,644) scale(0.28,0.28)">
			<g transform="">
				<path d="M73.4,0C85.1,0,100,0,100,0s0,34,0,50c0,12.5,0,50,0,50H74.9c0,0-65.5,2.1-73.3-13.5C-10.4,62.3,45.7,0,73.4,0z"/>
			</g>
		</g>
		<g transform="translate(336,644) scale(0.28,0.28)">
			<g transform="">
				<g>
					<path d="M100,0H0v100h65.6c9.5,0,17.6-3.4,24.3-10.1S100,75.1,100,65.6V0z"/>
				</g>
			</g>
		</g>
		<g transform="translate(728,644) scale(0.28,0.28)">
			<g transform="">
				<rect x="0" y="0" width="100" height="100"/>
			</g>
		</g>
		<g transform="translate(812,644) scale(0.28,0.28)">
			<g transform="">
				<path d="M0,25.6C0,13.9,0-1,0-1s34,0,50,0c12.5,0,50,0,50,0v25.1c0,0,2.1,65.5-13.5,73.3C62.3,109.4,0,53.3,0,25.6z"/>
			</g>
		</g>
		<g transform="translate(868,644) scale(0.28,0.28)">
			<g transform="">
				<g>
					<path d="M95.3,84C120.4,37.1,29.5-30.2,4.6,16.1C-20.4,62.9,70.6,130.1,95.3,84"/>
				</g>
			</g>
		</g>
		<g transform="translate(980,644) scale(0.28,0.28)">
			<g transform="">
				<rect x="0" y="0" width="100" height="100"/>
			</g>
		</g>
		<g transform="translate(1008,644) scale(0.28,0.28)">
			<g transform="">
				<rect x="0" y="0" width="100" height="100"/>
			</g>
		</g>
		<g transform="translate(56,672) scale(0.28,0.28)">
			<g transform="">
				<g>
					<path d="M100,0H0v65.6c0,9.5,3.4,17.6,10.1,24.3S24.9,100,34.4,100H100V0z"/>
				</g>
			</g>
		</g>
		<g transform="translate(84,672) scale(0.28,0.28)">
			<g transform="">
				<rect x="0" y="0" width="100" height="100"/>
			</g>
		</g>
		<g transform="translate(112,672) scale(0.28,0.28)">
			<g transform="">
				<path d="M26.6,100C14.9,100,0,100,0,100s0-34,0-50c0-12.5,0-50,0-50h25.1c0,0,64.5-2.1,72.3,13.5C109.4,37.7,54.3,100,26.6,100z
					"/>
			</g>
		</g>
		<g transform="translate(168,672) scale(0.28,0.28)">
			<g transform="">
				<g>
					<path d="M95.3,84C120.4,37.1,29.5-30.2,4.6,16.1C-20.4,62.9,70.6,130.1,95.3,84"/>
				</g>
			</g>
		</g>
		<g transform="translate(224,672) scale(0.28,0.28)">
			<g transform="">
				<g>
					<path d="M100,34.4V0H34.4c-9.5,0-17.6,3.4-24.3,10.1S0,24.9,0,34.4V100h100V34.4z"/>
				</g>
			</g>
		</g>
		<g transform="translate(252,672) scale(0.28,0.28)">
			<g transform="">
				<rect x="0" y="0" width="100" height="100"/>
			</g>
		</g>
		<g transform="translate(280,672) scale(0.28,0.28)">
			<g transform="">
				<path d="M26.6,100C14.9,100,0,100,0,100s0-34,0-50c0-12.5,0-50,0-50h25.1c0,0,64.5-2.1,72.3,13.5C109.4,37.7,54.3,100,26.6,100z
					"/>
			</g>
		</g>
		<g transform="translate(420,672) scale(0.28,0.28)">
			<g transform="">
				<g>
					<path d="M100,34.4V0H34.4c-9.5,0-17.6,3.4-24.3,10.1S0,24.9,0,34.4V100h100V34.4z"/>
				</g>
			</g>
		</g>
		<g transform="translate(448,672) scale(0.28,0.28)">
			<g transform="">
				<path d="M26.6,100C14.9,100,0,100,0,100s0-34,0-50c0-12.5,0-50,0-50h25.1c0,0,64.5-2.1,72.3,13.5C109.4,37.7,54.3,100,26.6,100z
					"/>
			</g>
		</g>
		<g transform="translate(504,672) scale(0.28,0.28)">
			<g transform="">
				<path d="M73.4,0C85.1,0,100,0,100,0s0,34,0,50c0,12.5,0,50,0,50H74.9c0,0-65.5,2.1-73.3-13.5C-10.4,62.3,45.7,0,73.4,0z"/>
			</g>
		</g>
		<g transform="translate(532,672) scale(0.28,0.28)">
			<g transform="">
				<rect x="0" y="0" width="100" height="100"/>
			</g>
		</g>
		<g transform="translate(560,672) scale(0.28,0.28)">
			<g transform="">
				<rect x="0" y="0" width="100" height="100"/>
			</g>
		</g>
		<g transform="translate(588,672) scale(0.28,0.28)">
			<g transform="">
				<path d="M26.6,100C14.9,100,0,100,0,100s0-34,0-50c0-12.5,0-50,0-50h25.1c0,0,64.5-2.1,72.3,13.5C109.4,37.7,54.3,100,26.6,100z
					"/>
			</g>
		</g>
		<g transform="translate(644,672) scale(0.28,0.28)">
			<g transform="">
				<path d="M73.4,0C85.1,0,100,0,100,0s0,34,0,50c0,12.5,0,50,0,50H74.9c0,0-65.5,2.1-73.3-13.5C-10.4,62.3,45.7,0,73.4,0z"/>
			</g>
		</g>
		<g transform="translate(672,672) scale(0.28,0.28)">
			<g transform="">
				<rect x="0" y="0" width="100" height="100"/>
			</g>
		</g>
		<g transform="translate(700,672) scale(0.28,0.28)">
			<g transform="">
				<rect x="0" y="0" width="100" height="100"/>
			</g>
		</g>
		<g transform="translate(728,672) scale(0.28,0.28)">
			<g transform="">
				<g>
					<path d="M100,0H0v100h65.6c9.5,0,17.6-3.4,24.3-10.1S100,75.1,100,65.6V0z"/>
				</g>
			</g>
		</g>
		<g transform="translate(840,672) scale(0.28,0.28)">
			<g transform="">
				<g>
					<path d="M95.3,84C120.4,37.1,29.5-30.2,4.6,16.1C-20.4,62.9,70.6,130.1,95.3,84"/>
				</g>
			</g>
		</g>
		<g transform="translate(896,672) scale(0.28,0.28)">
			<g transform="">
				<g>
					<path d="M95.3,84C120.4,37.1,29.5-30.2,4.6,16.1C-20.4,62.9,70.6,130.1,95.3,84"/>
				</g>
			</g>
		</g>
		<g transform="translate(952,672) scale(0.28,0.28)">
			<g transform="">
				<path d="M73.4,0C85.1,0,100,0,100,0s0,34,0,50c0,12.5,0,50,0,50H74.9c0,0-65.5,2.1-73.3-13.5C-10.4,62.3,45.7,0,73.4,0z"/>
			</g>
		</g>
		<g transform="translate(980,672) scale(0.28,0.28)">
			<g transform="">
				<rect x="0" y="0" width="100" height="100"/>
			</g>
		</g>
		<g transform="translate(1008,672) scale(0.28,0.28)">
			<g transform="">
				<g>
					<path d="M100,0H0v100h65.6c9.5,0,17.6-3.4,24.3-10.1S100,75.1,100,65.6V0z"/>
				</g>
			</g>
		</g>
		<g transform="translate(0,700) scale(0.28,0.28)">
			<g transform="">
				<path d="M100,73.4c0,11.7,0,26.6,0,26.6s-34,0-50,0c-12.5,0-50,0-50,0V74.9c0,0-2.1-65.5,13.5-73.3C37.7-10.4,100,45.7,100,73.4
					z"/>
			</g>
		</g>
		<g transform="translate(140,700) scale(0.28,0.28)">
			<g transform="">
				<path d="M100,73.4c0,11.7,0,26.6,0,26.6s-34,0-50,0c-12.5,0-50,0-50,0V74.9c0,0-2.1-65.5,13.5-73.3C37.7-10.4,100,45.7,100,73.4
					z"/>
			</g>
		</g>
		<g transform="translate(196,700) scale(0.28,0.28)">
			<g transform="">
				<g>
					<path d="M100,34.4V0H34.4c-9.5,0-17.6,3.4-24.3,10.1S0,24.9,0,34.4V100h100V34.4z"/>
				</g>
			</g>
		</g>
		<g transform="translate(224,700) scale(0.28,0.28)">
			<g transform="">
				<rect x="0" y="0" width="100" height="100"/>
			</g>
		</g>
		<g transform="translate(308,700) scale(0.28,0.28)">
			<g transform="">
				<g>
					<path d="M95.3,84C120.4,37.1,29.5-30.2,4.6,16.1C-20.4,62.9,70.6,130.1,95.3,84"/>
				</g>
			</g>
		</g>
		<g transform="translate(364,700) scale(0.28,0.28)">
			<g transform="">
				<path d="M100,73.4c0,11.7,0,26.6,0,26.6s-34,0-50,0c-12.5,0-50,0-50,0V74.9c0,0-2.1-65.5,13.5-73.3C37.7-10.4,100,45.7,100,73.4
					z"/>
			</g>
		</g>
		<g transform="translate(420,700) scale(0.28,0.28)">
			<g transform="">
				<rect x="0" y="0" width="100" height="100"/>
			</g>
		</g>
		<g transform="translate(532,700) scale(0.28,0.28)">
			<g transform="">
				<rect x="0" y="0" width="100" height="100"/>
			</g>
		</g>
		<g transform="translate(560,700) scale(0.28,0.28)">
			<g transform="">
				<rect x="0" y="0" width="100" height="100"/>
			</g>
		</g>
		<g transform="translate(616,700) scale(0.28,0.28)">
			<g transform="">
				<path d="M100,73.4c0,11.7,0,26.6,0,26.6s-34,0-50,0c-12.5,0-50,0-50,0V74.9c0,0-2.1-65.5,13.5-73.3C37.7-10.4,100,45.7,100,73.4
					z"/>
			</g>
		</g>
		<g transform="translate(784,700) scale(0.28,0.28)">
			<g transform="">
				<g>
					<path d="M95.3,84C120.4,37.1,29.5-30.2,4.6,16.1C-20.4,62.9,70.6,130.1,95.3,84"/>
				</g>
			</g>
		</g>
		<g transform="translate(868,700) scale(0.28,0.28)">
			<g transform="">
				<path d="M100,73.4c0,11.7,0,26.6,0,26.6s-34,0-50,0c-12.5,0-50,0-50,0V74.9c0,0-2.1-65.5,13.5-73.3C37.7-10.4,100,45.7,100,73.4
					z"/>
			</g>
		</g>
		<g transform="translate(0,728) scale(0.28,0.28)">
			<g transform="">
				<rect x="0" y="0" width="100" height="100"/>
			</g>
		</g>
		<g transform="translate(112,728) scale(0.28,0.28)">
			<g transform="">
				<path d="M73.4,0C85.1,0,100,0,100,0s0,34,0,50c0,12.5,0,50,0,50H74.9c0,0-65.5,2.1-73.3-13.5C-10.4,62.3,45.7,0,73.4,0z"/>
			</g>
		</g>
		<g transform="translate(140,728) scale(0.28,0.28)">
			<g transform="">
				<rect x="0" y="0" width="100" height="100"/>
			</g>
		</g>
		<g transform="translate(168,728) scale(0.28,0.28)">
			<g transform="">
				<rect x="0" y="0" width="100" height="100"/>
			</g>
		</g>
		<g transform="translate(196,728) scale(0.28,0.28)">
			<g transform="">
				<rect x="0" y="0" width="100" height="100"/>
			</g>
		</g>
		<g transform="translate(224,728) scale(0.28,0.28)">
			<g transform="">
				<rect x="0" y="0" width="100" height="100"/>
			</g>
		</g>
		<g transform="translate(280,728) scale(0.28,0.28)">
			<g transform="">
				<path d="M100,73.4c0,11.7,0,26.6,0,26.6s-34,0-50,0c-12.5,0-50,0-50,0V74.9c0,0-2.1-65.5,13.5-73.3C37.7-10.4,100,45.7,100,73.4
					z"/>
			</g>
		</g>
		<g transform="translate(364,728) scale(0.28,0.28)">
			<g transform="">
				<rect x="0" y="0" width="100" height="100"/>
			</g>
		</g>
		<g transform="translate(392,728) scale(0.28,0.28)">
			<g transform="">
				<rect x="0" y="0" width="100" height="100"/>
			</g>
		</g>
		<g transform="translate(420,728) scale(0.28,0.28)">
			<g transform="">
				<rect x="0" y="0" width="100" height="100"/>
			</g>
		</g>
		<g transform="translate(448,728) scale(0.28,0.28)">
			<g transform="">
				<g>
					<path d="M100,34.4c0-9.5-3.4-17.6-10.1-24.3S75.1,0,65.6,0H0v100h100V34.4z"/>
				</g>
			</g>
		</g>
		<g transform="translate(532,728) scale(0.28,0.28)">
			<g transform="">
				<g>
					<path d="M100,0H0v65.6c0,9.5,3.4,17.6,10.1,24.3S24.9,100,34.4,100H100V0z"/>
				</g>
			</g>
		</g>
		<g transform="translate(560,728) scale(0.28,0.28)">
			<g transform="">
				<g>
					<path d="M100,0H0v100h65.6c9.5,0,17.6-3.4,24.3-10.1S100,75.1,100,65.6V0z"/>
				</g>
			</g>
		</g>
		<g transform="translate(616,728) scale(0.28,0.28)">
			<g transform="">
				<g>
					<path d="M100,0H0v65.6c0,9.5,3.4,17.6,10.1,24.3S24.9,100,34.4,100H100V0z"/>
				</g>
			</g>
		</g>
		<g transform="translate(644,728) scale(0.28,0.28)">
			<g transform="">
				<rect x="0" y="0" width="100" height="100"/>
			</g>
		</g>
		<g transform="translate(672,728) scale(0.28,0.28)">
			<g transform="">
				<rect x="0" y="0" width="100" height="100"/>
			</g>
		</g>
		<g transform="translate(700,728) scale(0.28,0.28)">
			<g transform="">
				<rect x="0" y="0" width="100" height="100"/>
			</g>
		</g>
		<g transform="translate(728,728) scale(0.28,0.28)">
			<g transform="">
				<rect x="0" y="0" width="100" height="100"/>
			</g>
		</g>
		<g transform="translate(756,728) scale(0.28,0.28)">
			<g transform="">
				<path d="M26.6,100C14.9,100,0,100,0,100s0-34,0-50c0-12.5,0-50,0-50h25.1c0,0,64.5-2.1,72.3,13.5C109.4,37.7,54.3,100,26.6,100z
					"/>
			</g>
		</g>
		<g transform="translate(840,728) scale(0.28,0.28)">
			<g transform="">
				<path d="M73.4,0C85.1,0,100,0,100,0s0,34,0,50c0,12.5,0,50,0,50H74.9c0,0-65.5,2.1-73.3-13.5C-10.4,62.3,45.7,0,73.4,0z"/>
			</g>
		</g>
		<g transform="translate(868,728) scale(0.28,0.28)">
			<g transform="">
				<g>
					<path d="M100,0H0v100h65.6c9.5,0,17.6-3.4,24.3-10.1S100,75.1,100,65.6V0z"/>
				</g>
			</g>
		</g>
		<g transform="translate(924,728) scale(0.28,0.28)">
			<g transform="">
				<g>
					<path d="M95.3,84C120.4,37.1,29.5-30.2,4.6,16.1C-20.4,62.9,70.6,130.1,95.3,84"/>
				</g>
			</g>
		</g>
		<g transform="translate(980,728) scale(0.28,0.28)">
			<g transform="">
				<g>
					<path d="M100,34.4V0H34.4c-9.5,0-17.6,3.4-24.3,10.1S0,24.9,0,34.4V100h100V34.4z"/>
				</g>
			</g>
		</g>
		<g transform="translate(1008,728) scale(0.28,0.28)">
			<g transform="">
				<path d="M26.6,100C14.9,100,0,100,0,100s0-34,0-50c0-12.5,0-50,0-50h25.1c0,0,64.5-2.1,72.3,13.5C109.4,37.7,54.3,100,26.6,100z
					"/>
			</g>
		</g>
		<g transform="translate(0,756) scale(0.28,0.28)">
			<g transform="">
				<rect x="0" y="0" width="100" height="100"/>
			</g>
		</g>
		<g transform="translate(56,756) scale(0.28,0.28)">
			<g transform="">
				<path d="M100,73.4c0,11.7,0,26.6,0,26.6s-34,0-50,0c-12.5,0-50,0-50,0V74.9c0,0-2.1-65.5,13.5-73.3C37.7-10.4,100,45.7,100,73.4
					z"/>
			</g>
		</g>
		<g transform="translate(224,756) scale(0.28,0.28)">
			<g transform="">
				<g>
					<path d="M100,0H0v65.6c0,9.5,3.4,17.6,10.1,24.3S24.9,100,34.4,100H100V0z"/>
				</g>
			</g>
		</g>
		<g transform="translate(252,756) scale(0.28,0.28)">
			<g transform="">
				<rect x="0" y="0" width="100" height="100"/>
			</g>
		</g>
		<g transform="translate(280,756) scale(0.28,0.28)">
			<g transform="">
				<g>
					<path d="M100,0H0v100h65.6c9.5,0,17.6-3.4,24.3-10.1S100,75.1,100,65.6V0z"/>
				</g>
			</g>
		</g>
		<g transform="translate(364,756) scale(0.28,0.28)">
			<g transform="">
				<path d="M0,25.6C0,13.9,0-1,0-1s34,0,50,0c12.5,0,50,0,50,0v25.1c0,0,2.1,65.5-13.5,73.3C62.3,109.4,0,53.3,0,25.6z"/>
			</g>
		</g>
		<g transform="translate(448,756) scale(0.28,0.28)">
			<g transform="">
				<rect x="0" y="0" width="100" height="100"/>
			</g>
		</g>
		<g transform="translate(476,756) scale(0.28,0.28)">
			<g transform="">
				<rect x="0" y="0" width="100" height="100"/>
			</g>
		</g>
		<g transform="translate(504,756) scale(0.28,0.28)">
			<g transform="">
				<g>
					<path d="M100,34.4c0-9.5-3.4-17.6-10.1-24.3S75.1,0,65.6,0H0v100h100V34.4z"/>
				</g>
			</g>
		</g>
		<g transform="translate(588,756) scale(0.28,0.28)">
			<g transform="">
				<g>
					<path d="M95.3,84C120.4,37.1,29.5-30.2,4.6,16.1C-20.4,62.9,70.6,130.1,95.3,84"/>
				</g>
			</g>
		</g>
		<g transform="translate(644,756) scale(0.28,0.28)">
			<g transform="">
				<rect x="0" y="0" width="100" height="100"/>
			</g>
		</g>
		<g transform="translate(728,756) scale(0.28,0.28)">
			<g transform="">
				<rect x="0" y="0" width="100" height="100"/>
			</g>
		</g>
		<g transform="translate(784,756) scale(0.28,0.28)">
			<g transform="">
				<g>
					<path d="M100,34.4V0H34.4c-9.5,0-17.6,3.4-24.3,10.1S0,24.9,0,34.4V100h100V34.4z"/>
				</g>
			</g>
		</g>
		<g transform="translate(812,756) scale(0.28,0.28)">
			<g transform="">
				<g>
					<path d="M100,34.4c0-9.5-3.4-17.6-10.1-24.3S75.1,0,65.6,0H0v100h100V34.4z"/>
				</g>
			</g>
		</g>
		<g transform="translate(896,756) scale(0.28,0.28)">
			<g transform="">
				<path d="M100,73.4c0,11.7,0,26.6,0,26.6s-34,0-50,0c-12.5,0-50,0-50,0V74.9c0,0-2.1-65.5,13.5-73.3C37.7-10.4,100,45.7,100,73.4
					z"/>
			</g>
		</g>
		<g transform="translate(980,756) scale(0.28,0.28)">
			<g transform="">
				<path d="M0,25.6C0,13.9,0-1,0-1s34,0,50,0c12.5,0,50,0,50,0v25.1c0,0,2.1,65.5-13.5,73.3C62.3,109.4,0,53.3,0,25.6z"/>
			</g>
		</g>
		<g transform="translate(0,784) scale(0.28,0.28)">
			<g transform="">
				<path d="M0,25.6C0,13.9,0-1,0-1s34,0,50,0c12.5,0,50,0,50,0v25.1c0,0,2.1,65.5-13.5,73.3C62.3,109.4,0,53.3,0,25.6z"/>
			</g>
		</g>
		<g transform="translate(56,784) scale(0.28,0.28)">
			<g transform="">
				<path d="M0,25.6C0,13.9,0-1,0-1s34,0,50,0c12.5,0,50,0,50,0v25.1c0,0,2.1,65.5-13.5,73.3C62.3,109.4,0,53.3,0,25.6z"/>
			</g>
		</g>
		<g transform="translate(112,784) scale(0.28,0.28)">
			<g transform="">
				<path d="M73.4,0C85.1,0,100,0,100,0s0,34,0,50c0,12.5,0,50,0,50H74.9c0,0-65.5,2.1-73.3-13.5C-10.4,62.3,45.7,0,73.4,0z"/>
			</g>
		</g>
		<g transform="translate(140,784) scale(0.28,0.28)">
			<g transform="">
				<rect x="0" y="0" width="100" height="100"/>
			</g>
		</g>
		<g transform="translate(168,784) scale(0.28,0.28)">
			<g transform="">
				<path d="M26.6,100C14.9,100,0,100,0,100s0-34,0-50c0-12.5,0-50,0-50h25.1c0,0,64.5-2.1,72.3,13.5C109.4,37.7,54.3,100,26.6,100z
					"/>
			</g>
		</g>
		<g transform="translate(252,784) scale(0.28,0.28)">
			<g transform="">
				<path d="M0,25.6C0,13.9,0-1,0-1s34,0,50,0c12.5,0,50,0,50,0v25.1c0,0,2.1,65.5-13.5,73.3C62.3,109.4,0,53.3,0,25.6z"/>
			</g>
		</g>
		<g transform="translate(308,784) scale(0.28,0.28)">
			<g transform="">
				<g>
					<path d="M100,34.4V0H34.4c-9.5,0-17.6,3.4-24.3,10.1S0,24.9,0,34.4V100h100V34.4z"/>
				</g>
			</g>
		</g>
		<g transform="translate(336,784) scale(0.28,0.28)">
			<g transform="">
				<path d="M26.6,100C14.9,100,0,100,0,100s0-34,0-50c0-12.5,0-50,0-50h25.1c0,0,64.5-2.1,72.3,13.5C109.4,37.7,54.3,100,26.6,100z
					"/>
			</g>
		</g>
		<g transform="translate(448,784) scale(0.28,0.28)">
			<g transform="">
				<rect x="0" y="0" width="100" height="100"/>
			</g>
		</g>
		<g transform="translate(504,784) scale(0.28,0.28)">
			<g transform="">
				<rect x="0" y="0" width="100" height="100"/>
			</g>
		</g>
		<g transform="translate(644,784) scale(0.28,0.28)">
			<g transform="">
				<rect x="0" y="0" width="100" height="100"/>
			</g>
		</g>
		<g transform="translate(700,784) scale(0.28,0.28)">
			<g transform="">
				<g>
					<path d="M100,34.4V0H34.4c-9.5,0-17.6,3.4-24.3,10.1S0,24.9,0,34.4V100h100V34.4z"/>
				</g>
			</g>
		</g>
		<g transform="translate(728,784) scale(0.28,0.28)">
			<g transform="">
				<rect x="0" y="0" width="100" height="100"/>
			</g>
		</g>
		<g transform="translate(784,784) scale(0.28,0.28)">
			<g transform="">
				<rect x="0" y="0" width="100" height="100"/>
			</g>
		</g>
		<g transform="translate(812,784) scale(0.28,0.28)">
			<g transform="">
				<rect x="0" y="0" width="100" height="100"/>
			</g>
		</g>
		<g transform="translate(840,784) scale(0.28,0.28)">
			<g transform="">
				<rect x="0" y="0" width="100" height="100"/>
			</g>
		</g>
		<g transform="translate(868,784) scale(0.28,0.28)">
			<g transform="">
				<rect x="0" y="0" width="100" height="100"/>
			</g>
		</g>
		<g transform="translate(896,784) scale(0.28,0.28)">
			<g transform="">
				<rect x="0" y="0" width="100" height="100"/>
			</g>
		</g>
		<g transform="translate(924,784) scale(0.28,0.28)">
			<g transform="">
				<rect x="0" y="0" width="100" height="100"/>
			</g>
		</g>
		<g transform="translate(952,784) scale(0.28,0.28)">
			<g transform="">
				<path d="M26.6,100C14.9,100,0,100,0,100s0-34,0-50c0-12.5,0-50,0-50h25.1c0,0,64.5-2.1,72.3,13.5C109.4,37.7,54.3,100,26.6,100z
					"/>
			</g>
		</g>
		<g transform="translate(1008,784) scale(0.28,0.28)">
			<g transform="">
				<g>
					<path d="M95.3,84C120.4,37.1,29.5-30.2,4.6,16.1C-20.4,62.9,70.6,130.1,95.3,84"/>
				</g>
			</g>
		</g>
		<g transform="translate(224,812) scale(0.28,0.28)">
			<g transform="">
				<g>
					<path d="M95.3,84C120.4,37.1,29.5-30.2,4.6,16.1C-20.4,62.9,70.6,130.1,95.3,84"/>
				</g>
			</g>
		</g>
		<g transform="translate(280,812) scale(0.28,0.28)">
			<g transform="">
				<path d="M73.4,0C85.1,0,100,0,100,0s0,34,0,50c0,12.5,0,50,0,50H74.9c0,0-65.5,2.1-73.3-13.5C-10.4,62.3,45.7,0,73.4,0z"/>
			</g>
		</g>
		<g transform="translate(308,812) scale(0.28,0.28)">
			<g transform="">
				<rect x="0" y="0" width="100" height="100"/>
			</g>
		</g>
		<g transform="translate(364,812) scale(0.28,0.28)">
			<g transform="">
				<path d="M100,73.4c0,11.7,0,26.6,0,26.6s-34,0-50,0c-12.5,0-50,0-50,0V74.9c0,0-2.1-65.5,13.5-73.3C37.7-10.4,100,45.7,100,73.4
					z"/>
			</g>
		</g>
		<g transform="translate(448,812) scale(0.28,0.28)">
			<g transform="">
				<rect x="0" y="0" width="100" height="100"/>
			</g>
		</g>
		<g transform="translate(476,812) scale(0.28,0.28)">
			<g transform="">
				<rect x="0" y="0" width="100" height="100"/>
			</g>
		</g>
		<g transform="translate(504,812) scale(0.28,0.28)">
			<g transform="">
				<rect x="0" y="0" width="100" height="100"/>
			</g>
		</g>
		<g transform="translate(532,812) scale(0.28,0.28)">
			<g transform="">
				<rect x="0" y="0" width="100" height="100"/>
			</g>
		</g>
		<g transform="translate(560,812) scale(0.28,0.28)">
			<g transform="">
				<g>
					<path d="M100,34.4c0-9.5-3.4-17.6-10.1-24.3S75.1,0,65.6,0H0v100h100V34.4z"/>
				</g>
			</g>
		</g>
		<g transform="translate(644,812) scale(0.28,0.28)">
			<g transform="">
				<path d="M0,25.6C0,13.9,0-1,0-1s34,0,50,0c12.5,0,50,0,50,0v25.1c0,0,2.1,65.5-13.5,73.3C62.3,109.4,0,53.3,0,25.6z"/>
			</g>
		</g>
		<g transform="translate(700,812) scale(0.28,0.28)">
			<g transform="">
				<rect x="0" y="0" width="100" height="100"/>
			</g>
		</g>
		<g transform="translate(728,812) scale(0.28,0.28)">
			<g transform="">
				<rect x="0" y="0" width="100" height="100"/>
			</g>
		</g>
		<g transform="translate(784,812) scale(0.28,0.28)">
			<g transform="">
				<rect x="0" y="0" width="100" height="100"/>
			</g>
		</g>
		<g transform="translate(896,812) scale(0.28,0.28)">
			<g transform="">
				<rect x="0" y="0" width="100" height="100"/>
			</g>
		</g>
		<g transform="translate(980,812) scale(0.28,0.28)">
			<g transform="">
				<path d="M100,73.4c0,11.7,0,26.6,0,26.6s-34,0-50,0c-12.5,0-50,0-50,0V74.9c0,0-2.1-65.5,13.5-73.3C37.7-10.4,100,45.7,100,73.4
					z"/>
			</g>
		</g>
		<g transform="translate(252,840) scale(0.28,0.28)">
			<g transform="">
				<path d="M100,73.4c0,11.7,0,26.6,0,26.6s-34,0-50,0c-12.5,0-50,0-50,0V74.9c0,0-2.1-65.5,13.5-73.3C37.7-10.4,100,45.7,100,73.4
					z"/>
			</g>
		</g>
		<g transform="translate(308,840) scale(0.28,0.28)">
			<g transform="">
				<path d="M0,25.6C0,13.9,0-1,0-1s34,0,50,0c12.5,0,50,0,50,0v25.1c0,0,2.1,65.5-13.5,73.3C62.3,109.4,0,53.3,0,25.6z"/>
			</g>
		</g>
		<g transform="translate(364,840) scale(0.28,0.28)">
			<g transform="">
				<rect x="0" y="0" width="100" height="100"/>
			</g>
		</g>
		<g transform="translate(392,840) scale(0.28,0.28)">
			<g transform="">
				<rect x="0" y="0" width="100" height="100"/>
			</g>
		</g>
		<g transform="translate(420,840) scale(0.28,0.28)">
			<g transform="">
				<rect x="0" y="0" width="100" height="100"/>
			</g>
		</g>
		<g transform="translate(448,840) scale(0.28,0.28)">
			<g transform="">
				<rect x="0" y="0" width="100" height="100"/>
			</g>
		</g>
		<g transform="translate(476,840) scale(0.28,0.28)">
			<g transform="">
				<g>
					<path d="M100,0H0v100h65.6c9.5,0,17.6-3.4,24.3-10.1S100,75.1,100,65.6V0z"/>
				</g>
			</g>
		</g>
		<g transform="translate(532,840) scale(0.28,0.28)">
			<g transform="">
				<g>
					<path d="M100,0H0v65.6c0,9.5,3.4,17.6,10.1,24.3S24.9,100,34.4,100H100V0z"/>
				</g>
			</g>
		</g>
		<g transform="translate(560,840) scale(0.28,0.28)">
			<g transform="">
				<rect x="0" y="0" width="100" height="100"/>
			</g>
		</g>
		<g transform="translate(588,840) scale(0.28,0.28)">
			<g transform="">
				<g>
					<path d="M100,34.4c0-9.5-3.4-17.6-10.1-24.3S75.1,0,65.6,0H0v100h100V34.4z"/>
				</g>
			</g>
		</g>
		<g transform="translate(700,840) scale(0.28,0.28)">
			<g transform="">
				<g>
					<path d="M100,0H0v65.6c0,9.5,3.4,17.6,10.1,24.3S24.9,100,34.4,100H100V0z"/>
				</g>
			</g>
		</g>
		<g transform="translate(728,840) scale(0.28,0.28)">
			<g transform="">
				<g>
					<path d="M100,0H0v100h65.6c9.5,0,17.6-3.4,24.3-10.1S100,75.1,100,65.6V0z"/>
				</g>
			</g>
		</g>
		<g transform="translate(784,840) scale(0.28,0.28)">
			<g transform="">
				<rect x="0" y="0" width="100" height="100"/>
			</g>
		</g>
		<g transform="translate(840,840) scale(0.28,0.28)">
			<g transform="">
				<g>
					<path d="M95.3,84C120.4,37.1,29.5-30.2,4.6,16.1C-20.4,62.9,70.6,130.1,95.3,84"/>
				</g>
			</g>
		</g>
		<g transform="translate(896,840) scale(0.28,0.28)">
			<g transform="">
				<rect x="0" y="0" width="100" height="100"/>
			</g>
		</g>
		<g transform="translate(924,840) scale(0.28,0.28)">
			<g transform="">
				<path d="M26.6,100C14.9,100,0,100,0,100s0-34,0-50c0-12.5,0-50,0-50h25.1c0,0,64.5-2.1,72.3,13.5C109.4,37.7,54.3,100,26.6,100z
					"/>
			</g>
		</g>
		<g transform="translate(980,840) scale(0.28,0.28)">
			<g transform="">
				<rect x="0" y="0" width="100" height="100"/>
			</g>
		</g>
		<g transform="translate(1008,840) scale(0.28,0.28)">
			<g transform="">
				<path d="M26.6,100C14.9,100,0,100,0,100s0-34,0-50c0-12.5,0-50,0-50h25.1c0,0,64.5-2.1,72.3,13.5C109.4,37.7,54.3,100,26.6,100z
					"/>
			</g>
		</g>
		<g transform="translate(252,868) scale(0.28,0.28)">
			<g transform="">
				<g>
					<path d="M100,0H0v65.6c0,9.5,3.4,17.6,10.1,24.3S24.9,100,34.4,100H100V0z"/>
				</g>
			</g>
		</g>
		<g transform="translate(280,868) scale(0.28,0.28)">
			<g transform="">
				<path d="M26.6,100C14.9,100,0,100,0,100s0-34,0-50c0-12.5,0-50,0-50h25.1c0,0,64.5-2.1,72.3,13.5C109.4,37.7,54.3,100,26.6,100z
					"/>
			</g>
		</g>
		<g transform="translate(364,868) scale(0.28,0.28)">
			<g transform="">
				<rect x="0" y="0" width="100" height="100"/>
			</g>
		</g>
		<g transform="translate(392,868) scale(0.28,0.28)">
			<g transform="">
				<rect x="0" y="0" width="100" height="100"/>
			</g>
		</g>
		<g transform="translate(560,868) scale(0.28,0.28)">
			<g transform="">
				<g>
					<path d="M100,0H0v65.6c0,9.5,3.4,17.6,10.1,24.3S24.9,100,34.4,100H100V0z"/>
				</g>
			</g>
		</g>
		<g transform="translate(588,868) scale(0.28,0.28)">
			<g transform="">
				<rect x="0" y="0" width="100" height="100"/>
			</g>
		</g>
		<g transform="translate(784,868) scale(0.28,0.28)">
			<g transform="">
				<rect x="0" y="0" width="100" height="100"/>
			</g>
		</g>
		<g transform="translate(896,868) scale(0.28,0.28)">
			<g transform="">
				<rect x="0" y="0" width="100" height="100"/>
			</g>
		</g>
		<g transform="translate(980,868) scale(0.28,0.28)">
			<g transform="">
				<rect x="0" y="0" width="100" height="100"/>
			</g>
		</g>
		<g transform="translate(224,896) scale(0.28,0.28)">
			<g transform="">
				<path d="M100,73.4c0,11.7,0,26.6,0,26.6s-34,0-50,0c-12.5,0-50,0-50,0V74.9c0,0-2.1-65.5,13.5-73.3C37.7-10.4,100,45.7,100,73.4
					z"/>
			</g>
		</g>
		<g transform="translate(308,896) scale(0.28,0.28)">
			<g transform="">
				<g>
					<path d="M95.3,84C120.4,37.1,29.5-30.2,4.6,16.1C-20.4,62.9,70.6,130.1,95.3,84"/>
				</g>
			</g>
		</g>
		<g transform="translate(364,896) scale(0.28,0.28)">
			<g transform="">
				<g>
					<path d="M100,0H0v65.6c0,9.5,3.4,17.6,10.1,24.3S24.9,100,34.4,100H100V0z"/>
				</g>
			</g>
		</g>
		<g transform="translate(392,896) scale(0.28,0.28)">
			<g transform="">
				<g>
					<path d="M100,0H0v100h65.6c9.5,0,17.6-3.4,24.3-10.1S100,75.1,100,65.6V0z"/>
				</g>
			</g>
		</g>
		<g transform="translate(532,896) scale(0.28,0.28)">
			<g transform="">
				<g>
					<path d="M95.3,84C120.4,37.1,29.5-30.2,4.6,16.1C-20.4,62.9,70.6,130.1,95.3,84"/>
				</g>
			</g>
		</g>
		<g transform="translate(588,896) scale(0.28,0.28)">
			<g transform="">
				<rect x="0" y="0" width="100" height="100"/>
			</g>
		</g>
		<g transform="translate(644,896) scale(0.28,0.28)">
			<g transform="">
				<path d="M73.4,0C85.1,0,100,0,100,0s0,34,0,50c0,12.5,0,50,0,50H74.9c0,0-65.5,2.1-73.3-13.5C-10.4,62.3,45.7,0,73.4,0z"/>
			</g>
		</g>
		<g transform="translate(672,896) scale(0.28,0.28)">
			<g transform="">
				<rect x="0" y="0" width="100" height="100"/>
			</g>
		</g>
		<g transform="translate(700,896) scale(0.28,0.28)">
			<g transform="">
				<rect x="0" y="0" width="100" height="100"/>
			</g>
		</g>
		<g transform="translate(728,896) scale(0.28,0.28)">
			<g transform="">
				<rect x="0" y="0" width="100" height="100"/>
			</g>
		</g>
		<g transform="translate(756,896) scale(0.28,0.28)">
			<g transform="">
				<rect x="0" y="0" width="100" height="100"/>
			</g>
		</g>
		<g transform="translate(784,896) scale(0.28,0.28)">
			<g transform="">
				<rect x="0" y="0" width="100" height="100"/>
			</g>
		</g>
		<g transform="translate(812,896) scale(0.28,0.28)">
			<g transform="">
				<rect x="0" y="0" width="100" height="100"/>
			</g>
		</g>
		<g transform="translate(840,896) scale(0.28,0.28)">
			<g transform="">
				<rect x="0" y="0" width="100" height="100"/>
			</g>
		</g>
		<g transform="translate(868,896) scale(0.28,0.28)">
			<g transform="">
				<rect x="0" y="0" width="100" height="100"/>
			</g>
		</g>
		<g transform="translate(896,896) scale(0.28,0.28)">
			<g transform="">
				<rect x="0" y="0" width="100" height="100"/>
			</g>
		</g>
		<g transform="translate(952,896) scale(0.28,0.28)">
			<g transform="">
				<g>
					<path d="M100,34.4V0H34.4c-9.5,0-17.6,3.4-24.3,10.1S0,24.9,0,34.4V100h100V34.4z"/>
				</g>
			</g>
		</g>
		<g transform="translate(980,896) scale(0.28,0.28)">
			<g transform="">
				<rect x="0" y="0" width="100" height="100"/>
			</g>
		</g>
		<g transform="translate(1008,896) scale(0.28,0.28)">
			<g transform="">
				<path d="M26.6,100C14.9,100,0,100,0,100s0-34,0-50c0-12.5,0-50,0-50h25.1c0,0,64.5-2.1,72.3,13.5C109.4,37.7,54.3,100,26.6,100z
					"/>
			</g>
		</g>
		<g transform="translate(224,924) scale(0.28,0.28)">
			<g transform="">
				<rect x="0" y="0" width="100" height="100"/>
			</g>
		</g>
		<g transform="translate(336,924) scale(0.28,0.28)">
			<g transform="">
				<path d="M100,73.4c0,11.7,0,26.6,0,26.6s-34,0-50,0c-12.5,0-50,0-50,0V74.9c0,0-2.1-65.5,13.5-73.3C37.7-10.4,100,45.7,100,73.4
					z"/>
			</g>
		</g>
		<g transform="translate(420,924) scale(0.28,0.28)">
			<g transform="">
				<g>
					<path d="M100,34.4V0H34.4c-9.5,0-17.6,3.4-24.3,10.1S0,24.9,0,34.4V100h100V34.4z"/>
				</g>
			</g>
		</g>
		<g transform="translate(448,924) scale(0.28,0.28)">
			<g transform="">
				<rect x="0" y="0" width="100" height="100"/>
			</g>
		</g>
		<g transform="translate(476,924) scale(0.28,0.28)">
			<g transform="">
				<path d="M26.6,100C14.9,100,0,100,0,100s0-34,0-50c0-12.5,0-50,0-50h25.1c0,0,64.5-2.1,72.3,13.5C109.4,37.7,54.3,100,26.6,100z
					"/>
			</g>
		</g>
		<g transform="translate(588,924) scale(0.28,0.28)">
			<g transform="">
				<path d="M0,25.6C0,13.9,0-1,0-1s34,0,50,0c12.5,0,50,0,50,0v25.1c0,0,2.1,65.5-13.5,73.3C62.3,109.4,0,53.3,0,25.6z"/>
			</g>
		</g>
		<g transform="translate(672,924) scale(0.28,0.28)">
			<g transform="">
				<rect x="0" y="0" width="100" height="100"/>
			</g>
		</g>
		<g transform="translate(700,924) scale(0.28,0.28)">
			<g transform="">
				<rect x="0" y="0" width="100" height="100"/>
			</g>
		</g>
		<g transform="translate(728,924) scale(0.28,0.28)">
			<g transform="">
				<rect x="0" y="0" width="100" height="100"/>
			</g>
		</g>
		<g transform="translate(840,924) scale(0.28,0.28)">
			<g transform="">
				<path d="M0,25.6C0,13.9,0-1,0-1s34,0,50,0c12.5,0,50,0,50,0v25.1c0,0,2.1,65.5-13.5,73.3C62.3,109.4,0,53.3,0,25.6z"/>
			</g>
		</g>
		<g transform="translate(896,924) scale(0.28,0.28)">
			<g transform="">
				<g>
					<path d="M100,0H0v65.6c0,9.5,3.4,17.6,10.1,24.3S24.9,100,34.4,100H100V0z"/>
				</g>
			</g>
		</g>
		<g transform="translate(924,924) scale(0.28,0.28)">
			<g transform="">
				<rect x="0" y="0" width="100" height="100"/>
			</g>
		</g>
		<g transform="translate(952,924) scale(0.28,0.28)">
			<g transform="">
				<g>
					<path d="M100,0H0v100h65.6c9.5,0,17.6-3.4,24.3-10.1S100,75.1,100,65.6V0z"/>
				</g>
			</g>
		</g>
		<g transform="translate(224,952) scale(0.28,0.28)">
			<g transform="">
				<path d="M0,25.6C0,13.9,0-1,0-1s34,0,50,0c12.5,0,50,0,50,0v25.1c0,0,2.1,65.5-13.5,73.3C62.3,109.4,0,53.3,0,25.6z"/>
			</g>
		</g>
		<g transform="translate(280,952) scale(0.28,0.28)">
			<g transform="">
				<g>
					<path d="M95.3,84C120.4,37.1,29.5-30.2,4.6,16.1C-20.4,62.9,70.6,130.1,95.3,84"/>
				</g>
			</g>
		</g>
		<g transform="translate(336,952) scale(0.28,0.28)">
			<g transform="">
				<g>
					<path d="M100,0H0v65.6c0,9.5,3.4,17.6,10.1,24.3S24.9,100,34.4,100H100V0z"/>
				</g>
			</g>
		</g>
		<g transform="translate(364,952) scale(0.28,0.28)">
			<g transform="">
				<path d="M26.6,100C14.9,100,0,100,0,100s0-34,0-50c0-12.5,0-50,0-50h25.1c0,0,64.5-2.1,72.3,13.5C109.4,37.7,54.3,100,26.6,100z
					"/>
			</g>
		</g>
		<g transform="translate(420,952) scale(0.28,0.28)">
			<g transform="">
				<rect x="0" y="0" width="100" height="100"/>
			</g>
		</g>
		<g transform="translate(504,952) scale(0.28,0.28)">
			<g transform="">
				<path d="M100,73.4c0,11.7,0,26.6,0,26.6s-34,0-50,0c-12.5,0-50,0-50,0V74.9c0,0-2.1-65.5,13.5-73.3C37.7-10.4,100,45.7,100,73.4
					z"/>
			</g>
		</g>
		<g transform="translate(672,952) scale(0.28,0.28)">
			<g transform="">
				<g>
					<path d="M100,0H0v65.6c0,9.5,3.4,17.6,10.1,24.3S24.9,100,34.4,100H100V0z"/>
				</g>
			</g>
		</g>
		<g transform="translate(700,952) scale(0.28,0.28)">
			<g transform="">
				<rect x="0" y="0" width="100" height="100"/>
			</g>
		</g>
		<g transform="translate(728,952) scale(0.28,0.28)">
			<g transform="">
				<rect x="0" y="0" width="100" height="100"/>
			</g>
		</g>
		<g transform="translate(812,952) scale(0.28,0.28)">
			<g transform="">
				<g>
					<path d="M95.3,84C120.4,37.1,29.5-30.2,4.6,16.1C-20.4,62.9,70.6,130.1,95.3,84"/>
				</g>
			</g>
		</g>
		<g transform="translate(868,952) scale(0.28,0.28)">
			<g transform="">
				<g>
					<path d="M95.3,84C120.4,37.1,29.5-30.2,4.6,16.1C-20.4,62.9,70.6,130.1,95.3,84"/>
				</g>
			</g>
		</g>
		<g transform="translate(1008,952) scale(0.28,0.28)">
			<g transform="">
				<path d="M100,73.4c0,11.7,0,26.6,0,26.6s-34,0-50,0c-12.5,0-50,0-50,0V74.9c0,0-2.1-65.5,13.5-73.3C37.7-10.4,100,45.7,100,73.4
					z"/>
			</g>
		</g>
		<g transform="translate(420,980) scale(0.28,0.28)">
			<g transform="">
				<rect x="0" y="0" width="100" height="100"/>
			</g>
		</g>
		<g transform="translate(504,980) scale(0.28,0.28)">
			<g transform="">
				<path d="M0,25.6C0,13.9,0-1,0-1s34,0,50,0c12.5,0,50,0,50,0v25.1c0,0,2.1,65.5-13.5,73.3C62.3,109.4,0,53.3,0,25.6z"/>
			</g>
		</g>
		<g transform="translate(616,980) scale(0.28,0.28)">
			<g transform="">
				<path d="M100,73.4c0,11.7,0,26.6,0,26.6s-34,0-50,0c-12.5,0-50,0-50,0V74.9c0,0-2.1-65.5,13.5-73.3C37.7-10.4,100,45.7,100,73.4
					z"/>
			</g>
		</g>
		<g transform="translate(728,980) scale(0.28,0.28)">
			<g transform="">
				<g>
					<path d="M100,0H0v65.6c0,9.5,3.4,17.6,10.1,24.3S24.9,100,34.4,100H100V0z"/>
				</g>
			</g>
		</g>
		<g transform="translate(756,980) scale(0.28,0.28)">
			<g transform="">
				<rect x="0" y="0" width="100" height="100"/>
			</g>
		</g>
		<g transform="translate(784,980) scale(0.28,0.28)">
			<g transform="">
				<path d="M26.6,100C14.9,100,0,100,0,100s0-34,0-50c0-12.5,0-50,0-50h25.1c0,0,64.5-2.1,72.3,13.5C109.4,37.7,54.3,100,26.6,100z
					"/>
			</g>
		</g>
		<g transform="translate(840,980) scale(0.28,0.28)">
			<g transform="">
				<path d="M100,73.4c0,11.7,0,26.6,0,26.6s-34,0-50,0c-12.5,0-50,0-50,0V74.9c0,0-2.1-65.5,13.5-73.3C37.7-10.4,100,45.7,100,73.4
					z"/>
			</g>
		</g>
		<g transform="translate(896,980) scale(0.28,0.28)">
			<g transform="">
				<g>
					<path d="M95.3,84C120.4,37.1,29.5-30.2,4.6,16.1C-20.4,62.9,70.6,130.1,95.3,84"/>
				</g>
			</g>
		</g>
		<g transform="translate(1008,980) scale(0.28,0.28)">
			<g transform="">
				<rect x="0" y="0" width="100" height="100"/>
			</g>
		</g>
		<g transform="translate(252,1008) scale(0.28,0.28)">
			<g transform="">
				<path d="M73.4,0C85.1,0,100,0,100,0s0,34,0,50c0,12.5,0,50,0,50H74.9c0,0-65.5,2.1-73.3-13.5C-10.4,62.3,45.7,0,73.4,0z"/>
			</g>
		</g>
		<g transform="translate(280,1008) scale(0.28,0.28)">
			<g transform="">
				<rect x="0" y="0" width="100" height="100"/>
			</g>
		</g>
		<g transform="translate(308,1008) scale(0.28,0.28)">
			<g transform="">
				<path d="M26.6,100C14.9,100,0,100,0,100s0-34,0-50c0-12.5,0-50,0-50h25.1c0,0,64.5-2.1,72.3,13.5C109.4,37.7,54.3,100,26.6,100z
					"/>
			</g>
		</g>
		<g transform="translate(392,1008) scale(0.28,0.28)">
			<g transform="">
				<path d="M73.4,0C85.1,0,100,0,100,0s0,34,0,50c0,12.5,0,50,0,50H74.9c0,0-65.5,2.1-73.3-13.5C-10.4,62.3,45.7,0,73.4,0z"/>
			</g>
		</g>
		<g transform="translate(420,1008) scale(0.28,0.28)">
			<g transform="">
				<g>
					<path d="M100,0H0v100h65.6c9.5,0,17.6-3.4,24.3-10.1S100,75.1,100,65.6V0z"/>
				</g>
			</g>
		</g>
		<g transform="translate(476,1008) scale(0.28,0.28)">
			<g transform="">
				<g>
					<path d="M95.3,84C120.4,37.1,29.5-30.2,4.6,16.1C-20.4,62.9,70.6,130.1,95.3,84"/>
				</g>
			</g>
		</g>
		<g transform="translate(532,1008) scale(0.28,0.28)">
			<g transform="">
				<path d="M73.4,0C85.1,0,100,0,100,0s0,34,0,50c0,12.5,0,50,0,50H74.9c0,0-65.5,2.1-73.3-13.5C-10.4,62.3,45.7,0,73.4,0z"/>
			</g>
		</g>
		<g transform="translate(560,1008) scale(0.28,0.28)">
			<g transform="">
				<path d="M26.6,100C14.9,100,0,100,0,100s0-34,0-50c0-12.5,0-50,0-50h25.1c0,0,64.5-2.1,72.3,13.5C109.4,37.7,54.3,100,26.6,100z
					"/>
			</g>
		</g>
		<g transform="translate(616,1008) scale(0.28,0.28)">
			<g transform="">
				<g>
					<path d="M100,0H0v65.6c0,9.5,3.4,17.6,10.1,24.3S24.9,100,34.4,100H100V0z"/>
				</g>
			</g>
		</g>
		<g transform="translate(644,1008) scale(0.28,0.28)">
			<g transform="">
				<rect x="0" y="0" width="100" height="100"/>
			</g>
		</g>
		<g transform="translate(672,1008) scale(0.28,0.28)">
			<g transform="">
				<rect x="0" y="0" width="100" height="100"/>
			</g>
		</g>
		<g transform="translate(700,1008) scale(0.28,0.28)">
			<g transform="">
				<path d="M26.6,100C14.9,100,0,100,0,100s0-34,0-50c0-12.5,0-50,0-50h25.1c0,0,64.5-2.1,72.3,13.5C109.4,37.7,54.3,100,26.6,100z
					"/>
			</g>
		</g>
		<g transform="translate(812,1008) scale(0.28,0.28)">
			<g transform="">
				<path d="M73.4,0C85.1,0,100,0,100,0s0,34,0,50c0,12.5,0,50,0,50H74.9c0,0-65.5,2.1-73.3-13.5C-10.4,62.3,45.7,0,73.4,0z"/>
			</g>
		</g>
		<g transform="translate(840,1008) scale(0.28,0.28)">
			<g transform="">
				<rect x="0" y="0" width="100" height="100"/>
			</g>
		</g>
		<g transform="translate(868,1008) scale(0.28,0.28)">
			<g transform="">
				<path d="M26.6,100C14.9,100,0,100,0,100s0-34,0-50c0-12.5,0-50,0-50h25.1c0,0,64.5-2.1,72.3,13.5C109.4,37.7,54.3,100,26.6,100z
					"/>
			</g>
		</g>
		<g transform="translate(924,1008) scale(0.28,0.28)">
			<g transform="">
				<path d="M73.4,0C85.1,0,100,0,100,0s0,34,0,50c0,12.5,0,50,0,50H74.9c0,0-65.5,2.1-73.3-13.5C-10.4,62.3,45.7,0,73.4,0z"/>
			</g>
		</g>
		<g transform="translate(952,1008) scale(0.28,0.28)">
			<g transform="">
				<rect x="0" y="0" width="100" height="100"/>
			</g>
		</g>
		<g transform="translate(980,1008) scale(0.28,0.28)">
			<g transform="">
				<rect x="0" y="0" width="100" height="100"/>
			</g>
		</g>
		<g transform="translate(1008,1008) scale(0.28,0.28)">
			<g transform="">
				<g>
					<path d="M100,0H0v100h65.6c9.5,0,17.6-3.4,24.3-10.1S100,75.1,100,65.6V0z"/>
				</g>
			</g>
		</g>
		<g transform="translate(0,0) scale(1.96, 1.96)">
			<g transform="">
				<path d="M21.5,100c-6.6,0-13-6.9-14-13.2L0,0l88.1,5.6c6.2,0.9,11.1,6.8,11.1,13.8L100,100H21.5z M85.7,85.7l-0.5-57.5
					c0-5-3.5-9.2-7.9-9.9l-62.9-4l5.4,62c0.7,4.5,5.2,9.4,10,9.4H85.7z"/>
			</g>
		</g>
		<g transform="translate(840,0) scale(1.96, 1.96)">
			<g transform=" translate(100, 0) scale(-1,1) ">
				<path d="M21.5,100c-6.6,0-13-6.9-14-13.2L0,0l88.1,5.6c6.2,0.9,11.1,6.8,11.1,13.8L100,100H21.5z M85.7,85.7l-0.5-57.5
					c0-5-3.5-9.2-7.9-9.9l-62.9-4l5.4,62c0.7,4.5,5.2,9.4,10,9.4H85.7z"/>
			</g>
		</g>
		<g transform="translate(0,840) scale(1.96, 1.96)">
			<g transform=" translate(0,100) scale(1,-1) ">
				<path d="M21.5,100c-6.6,0-13-6.9-14-13.2L0,0l88.1,5.6c6.2,0.9,11.1,6.8,11.1,13.8L100,100H21.5z M85.7,85.7l-0.5-57.5
					c0-5-3.5-9.2-7.9-9.9l-62.9-4l5.4,62c0.7,4.5,5.2,9.4,10,9.4H85.7z"/>
			</g>
		</g>
		<g transform="translate(56,56) scale(0.84, 0.84)">
			<g transform="">
				<polygon class="st0" points="51.2,100 0,49.8 0,0 49.8,0 100,51.2 100,100 				"/>
			</g>
		</g>
		<g transform="translate(896,56) scale(0.84, 0.84)">
			<g transform=" translate(100, 0) scale(-1,1) ">
				<polygon class="st0" points="51.2,100 0,49.8 0,0 49.8,0 100,51.2 100,100 				"/>
			</g>
		</g>
		<g transform="translate(56,896) scale(0.84, 0.84)">
			<g transform=" translate(0,100) scale(1,-1) ">
				<polygon class="st0" points="51.2,100 0,49.8 0,0 49.8,0 100,51.2 100,100 				"/>
			</g>
		</g>
		
			<image style="overflow:visible;enable-background:new    ;" width="308" height="308" xlink:href="28838028.png"  transform="matrix(1 0 0 1 364 364)">
		</image>
	</g>
</g>
</svg>
